<svg width="20" height="18" viewBox="0 0 20 18" fill="none" xmlns="http://www.w3.org/2000/svg">
<path d="M8.66651 1.55274C8.98757 0.67952 10.2226 0.67952 10.5437 1.55274L12.1589 5.9459C12.3036 6.33935 12.6783 6.60081 13.0975 6.60081H18.0349C19.0332 6.60081 19.4152 7.90291 18.5752 8.4423L14.802 10.8649C14.4076 11.1181 14.242 11.6115 14.4037 12.0514L15.8934 16.103C16.2243 17.003 15.2214 17.8077 14.4145 17.2896L10.1454 14.5485C9.81618 14.3372 9.39398 14.3372 9.0648 14.5485L4.79563 17.2896C3.98874 17.8077 2.98588 17.003 3.31678 16.103L4.80643 12.0514C4.9682 11.6115 4.80262 11.1181 4.40814 10.8649L0.635015 8.4423C-0.205073 7.90291 0.176956 6.60081 1.1753 6.60081H6.1127C6.5319 6.60081 6.90661 6.33935 7.05127 5.9459L8.66651 1.55274Z" fill="#F2594B"/>
</svg>
