<svg width="100" height="100" viewBox="0 0 100 100" fill="none" xmlns="http://www.w3.org/2000/svg">
<path fill-rule="evenodd" clip-rule="evenodd" d="M96.2987 18.727C97.6233 12.2696 91.2808 6.90339 85.1321 9.2791L9.76039 38.4C2.8938 41.053 2.58784 50.6549 9.27156 53.7395L25.6854 61.3153L33.4937 88.6441C33.8993 90.0637 35.0257 91.1628 36.4548 91.5333C37.884 91.9033 39.4024 91.4899 40.4463 90.4458L52.4741 78.4178L69.3229 91.0545C74.2137 94.7224 81.2579 92.0508 82.4862 86.062L96.2987 18.727ZM12.7637 46.1733L88.1354 17.0524L74.3229 84.3878L54.5833 69.5828C52.9246 68.3387 50.6033 68.5037 49.1371 69.9699L43.9854 75.1216L45.5333 66.6087L75.8629 36.2792C77.3391 34.8032 77.495 32.4627 76.2279 30.8038C74.9608 29.1449 72.6621 28.6796 70.8496 29.7153L28.9635 53.6499L12.7637 46.1733ZM34.0706 60.3295L36.5972 69.1728L37.5672 63.8374C37.7188 63.0037 38.1211 62.2358 38.7204 61.6366L47.97 52.3874L34.0706 60.3295Z" fill="#1B0B37"/>
</svg>
