<svg width="100" height="100" viewBox="0 0 100 100" fill="none" xmlns="http://www.w3.org/2000/svg">
<path d="M56.25 68.7502C56.2497 72.6645 55.0888 76.4908 52.9141 79.7455C50.7394 83.0001 47.6485 85.5369 44.0323 87.0351C40.4159 88.5334 36.4364 88.9256 32.5971 88.1619C28.7578 87.3983 25.2313 85.5131 22.4635 82.745C19.6954 79.9772 17.8103 76.4506 17.0467 72.6114C16.283 68.7721 16.6751 64.7926 18.1734 61.1762C19.6715 57.5598 22.2082 54.4689 25.4629 52.2941C28.7175 50.1194 32.544 48.9586 36.4583 48.9585" stroke="#1B0B37" stroke-width="7" stroke-linecap="round"/>
<path d="M56.25 68.7502V11.4585C56.25 20.8335 68.75 37.5002 83.3333 37.5002" stroke="#1B0B37" stroke-width="7" stroke-linecap="round" stroke-linejoin="round"/>
</svg>
