<svg width="100" height="100" viewBox="0 0 100 100" fill="none" xmlns="http://www.w3.org/2000/svg">
<path d="M65.5986 56.3719C64.3815 55.0559 63.0147 53.8867 61.526 52.8881C67.5332 48.2435 71.7431 41.6587 73.4375 34.2568C73.5626 33.7219 73.5807 33.1676 73.4907 32.6257C73.4007 32.0837 73.2045 31.565 72.9132 31.0992C72.622 30.6334 72.2415 30.2298 71.7937 29.9116C71.3459 29.5934 70.8396 29.3669 70.304 29.2451C69.7683 29.1234 69.2139 29.1087 68.6725 29.202C68.1311 29.2953 67.6136 29.4948 67.1496 29.7889C66.6856 30.083 66.2844 30.4659 65.969 30.9157C65.6535 31.3654 65.4302 31.8731 65.3117 32.4095C64.5225 35.8719 62.9876 39.1204 60.8139 41.9286C58.6403 44.7368 55.8802 47.0371 52.7263 48.669V33.3415C52.7005 33.0349 52.6394 32.7323 52.5442 32.4397C52.5166 32.1988 52.4685 31.9607 52.4005 31.7279C52.2227 31.349 51.9883 30.9993 51.7054 30.6908C51.6309 30.6023 51.5933 30.4856 51.5119 30.4037C51.2067 30.1219 50.8611 29.8873 50.4865 29.7076C50.3802 29.6509 50.3011 29.555 50.1895 29.5076C49.8703 29.4013 49.5395 29.3332 49.2043 29.3049C48.9974 29.2444 48.7858 29.2009 48.5718 29.175L45.8456 29.1665H45.8334C44.8586 29.1618 43.9134 29.5007 43.1636 30.1236C42.4138 30.7465 41.9075 31.6136 41.7334 32.5727C41.5593 33.5317 41.7286 34.5215 42.2116 35.3682C42.6946 36.2148 43.4604 36.8643 44.3746 37.2025V57.5804C37.7718 50.7263 33.3997 42.0331 31.8339 32.6457C31.7426 32.1062 31.5458 31.5901 31.255 31.1267C30.9641 30.6633 30.5848 30.2617 30.1388 29.9449C29.6928 29.6281 29.1887 29.4022 28.6553 29.2802C28.122 29.1582 27.5699 29.1425 27.0304 29.2338C26.491 29.3252 25.9749 29.5219 25.5115 29.8128C25.0481 30.1036 24.6465 30.4829 24.3297 30.929C24.0129 31.375 23.787 31.8791 23.665 32.4124C23.543 32.9458 23.5272 33.4979 23.6186 34.0373C26.0536 48.548 34.1452 61.5002 46.1182 70.0521C46.289 70.1544 46.4669 70.2442 46.6507 70.3207C46.795 70.4054 46.9446 70.4809 47.0986 70.5465C47.5637 70.7324 48.0588 70.8324 48.5596 70.8415C49.1726 70.834 49.7761 70.6889 50.3255 70.4171C50.367 70.3975 50.4146 70.4066 50.4558 70.3858C50.824 70.1939 51.1613 69.9477 51.4562 69.6554C51.5155 69.5977 51.5551 69.5267 51.6111 69.4657C51.8799 69.1703 52.1044 68.8374 52.2774 68.4774C52.3354 68.3579 52.3883 68.2437 52.4348 68.1181C52.6179 67.6584 52.7167 67.1695 52.7263 66.6748L52.7283 57.8165C55.31 58.5745 57.6361 60.0221 59.4564 62.0035L66.3229 69.4905C66.6922 69.895 67.1378 70.2228 67.634 70.4549C68.1303 70.6871 68.6674 70.8191 69.2147 70.8433C69.7621 70.8676 70.3088 70.7837 70.8236 70.5964C71.3384 70.409 71.8113 70.122 72.215 69.7517C72.6188 69.3814 72.9455 68.9351 73.1765 68.4383C73.4076 67.9416 73.5383 67.4041 73.5614 66.8568C73.5844 66.3094 73.4992 65.7629 73.3108 65.2485C73.1223 64.7341 72.8342 64.2619 72.463 63.859L65.5986 56.3719ZM62.8031 4.1665H37.2396C11.5845 4.1665 4.16669 11.5762 4.16669 37.1947V62.7603C4.16669 88.4154 11.5743 95.8332 37.1969 95.8332H62.7604C88.4156 95.8332 95.8334 88.4235 95.8334 62.805V37.2394C95.8334 11.5843 88.4257 4.1665 62.8031 4.1665ZM87.5 62.805C87.5 83.8052 83.8013 87.4998 62.7604 87.4998H37.1969C16.1926 87.4998 12.5 83.8011 12.5 62.7603V37.1947C12.5 16.1945 16.1988 12.4998 37.2396 12.4998H62.8031C83.8074 12.4998 87.5 16.1986 87.5 37.2394V62.805Z" fill="#1B0B37"/>
</svg>
