<svg width="100" height="100" viewBox="0 0 100 100" fill="none" xmlns="http://www.w3.org/2000/svg">
<path fill-rule="evenodd" clip-rule="evenodd" d="M72.672 78.0112C81.8896 78.3468 89.64 71.16 90 61.9432V38.0793C89.64 28.8628 81.8896 21.6757 72.672 22.0113H27.328C18.1105 21.6757 10.3599 28.8628 10 38.0793V61.9432C10.3599 71.16 18.1105 78.3468 27.328 78.0112H72.672Z" stroke="#1B0B37" stroke-width="7" stroke-linecap="round" stroke-linejoin="round"/>
<path fill-rule="evenodd" clip-rule="evenodd" d="M48.032 38.7114L60.676 47.3032C61.4952 47.7816 61.9988 48.6588 61.9988 49.6072C61.9988 50.556 61.4952 51.4332 60.676 51.9112L48.032 61.3112C45.632 62.9392 42 61.5512 42 59.0072V41.0074C42 38.4754 45.636 37.0834 48.032 38.7114Z" stroke="#1B0B37" stroke-width="7" stroke-linecap="round" stroke-linejoin="round"/>
</svg>
