<svg width="87" height="87" viewBox="0 0 87 87" fill="none" xmlns="http://www.w3.org/2000/svg">
<g clip-path="url(#clip0_455_639)">
<path d="M53.7023 39.1733C54.0504 37.5652 53.7232 35.8247 52.8321 34.4394C50.5905 30.9585 45.6129 30.4225 42.6542 33.2837C40.0087 31.7591 36.9108 34.2444 35.3374 36.2773C34.4324 37.4468 33.7223 38.8531 33.8616 40.3707C33.9103 40.9068 34.0565 41.408 34.2862 41.8744C33.7015 42.501 33.0888 43.232 33.0192 44.1231C32.9496 45.1186 33.4856 45.954 34.1818 46.6084C34.2793 46.6989 34.4046 46.7267 34.5299 46.7267C34.3419 48.2931 34.5925 49.9082 35.3374 51.3075C36.2007 52.9365 37.6696 53.9669 39.4588 54.3846C41.3663 54.8301 43.4408 54.5447 45.2161 53.6884C45.2369 53.7093 45.2509 53.7371 45.2718 53.758C46.8381 54.7814 48.8918 54.8997 50.5696 54.0574C51.4259 53.6257 52.1638 53.0061 52.5049 52.0872C52.8112 51.2518 52.8252 50.3468 52.7416 49.4696C54.1897 49.031 55.4567 48.0007 56.132 46.5318C57.3781 43.8167 56.2364 40.6701 53.7093 39.1803L53.7023 39.1733ZM47.2976 32.4831C50.674 32.4483 53.4448 35.7969 52.6163 39.1037C52.1638 40.9137 50.5626 42.2504 48.6969 42.3061C48.6482 42.3061 48.6134 42.3269 48.5716 42.3339C48.4463 42.139 48.314 41.951 48.1748 41.77C46.671 39.8625 44.2275 38.9227 41.8745 39.1037C41.1922 35.7064 43.8516 32.5179 47.3046 32.4831H47.2976ZM36.2703 36.8411C37.0082 35.9152 37.8854 35.045 38.9366 34.4672C39.7999 33.9938 40.9973 33.6875 41.9302 34.1122C40.872 35.588 40.496 37.4607 40.8093 39.2568C39.9948 39.4448 39.2081 39.772 38.498 40.2524C38.4006 40.322 38.3449 40.4055 38.3101 40.4891C37.4747 41.0599 36.7576 41.7839 36.1659 42.5984C35.4419 41.9858 34.9894 41.0669 34.9337 40.1201C34.871 38.8948 35.5324 37.7601 36.2703 36.8411ZM34.7387 45.6198C34.5647 45.4388 34.3976 45.2439 34.2862 45.0281C34.14 44.7635 34.0635 44.4572 34.1052 44.1927C34.147 43.9003 34.2793 43.6149 34.4394 43.3782C34.5786 43.1832 34.7318 43.0022 34.8849 42.8212C35.0938 43.0718 35.3235 43.3016 35.5811 43.5104C35.2121 44.1718 34.9267 44.8819 34.7318 45.6198H34.7387ZM41.0042 53.5074C39.3752 53.4447 37.7114 52.8391 36.7228 51.4885C35.8735 50.3398 35.4976 48.8709 35.5533 47.4507C35.6786 44.4503 37.6626 41.6099 40.496 40.5796C40.6074 40.5378 40.684 40.4682 40.7397 40.3916C42.7586 39.8068 45.0699 40.3011 46.6571 41.7213C48.7874 43.6357 49.2051 47.0191 47.9798 49.5392C46.7337 52.1081 43.8098 53.6048 41.0042 53.4935V53.5074ZM51.5303 51.5651C51.3006 52.2752 50.7506 52.7625 50.0892 53.0758C48.9057 53.6397 47.4368 53.7023 46.2603 53.0827C47.0679 52.5397 47.7849 51.8644 48.3419 51.0638C48.7108 50.5348 49.0102 49.9569 49.2329 49.3513C50.0266 49.6506 50.855 49.7481 51.6626 49.6715C51.7183 50.305 51.7252 50.9594 51.5303 51.5651ZM55.1434 46.0584C54.1688 48.1817 51.6974 49.1563 49.5462 48.3001C49.9152 46.6571 49.776 44.8958 49.1146 43.3573C50.9386 43.1763 52.5815 41.9858 53.3403 40.315C53.3473 40.2941 53.3543 40.2663 53.3682 40.2454C55.2896 41.4707 56.1111 43.9629 55.1434 46.0584Z" fill="white" fill-opacity="0.8"/>
<path d="M38.9784 50.0266C37.7322 48.8918 37.4468 46.9495 38.3658 45.5154C38.5259 45.2648 38.5468 44.9515 38.2961 44.7496C38.0942 44.5756 37.6905 44.5686 37.5304 44.8193C36.9108 45.78 36.6044 46.9217 36.7715 48.0634C36.9316 49.1494 37.4677 50.124 38.2752 50.862C38.7974 51.3354 39.4935 50.5 38.9784 50.0266Z" fill="white" fill-opacity="0.8"/>
<path d="M47.04 34.7666C46.9147 34.4742 46.6363 34.3628 46.3369 34.4464C44.9237 34.8223 43.7959 36.1868 43.6915 37.6487C43.6706 37.9342 43.8168 38.2405 44.1301 38.2822C44.3946 38.3171 44.7427 38.15 44.7636 37.8437C44.7775 37.6835 44.7984 37.5304 44.8332 37.3703C44.8402 37.3285 44.8541 37.2937 44.861 37.2519C44.861 37.2519 44.861 37.238 44.861 37.231C44.861 37.231 44.8889 37.1545 44.8889 37.1405C44.9028 37.1127 44.9098 37.0779 44.9237 37.05C44.9863 36.9038 45.056 36.7576 45.1325 36.6254C45.1325 36.6254 45.1395 36.6114 45.1465 36.5975C45.1465 36.5975 45.1465 36.5975 45.1465 36.6045C45.1604 36.5766 45.1813 36.5488 45.2022 36.5209C45.2509 36.4583 45.2996 36.3956 45.3484 36.333C45.3971 36.2773 45.4458 36.2216 45.4945 36.1659C45.5224 36.1381 45.5502 36.1102 45.5781 36.0824C45.5781 36.0824 45.592 36.0684 45.599 36.0615C45.599 36.0615 45.599 36.0615 45.599 36.0684C45.6825 35.957 45.8426 35.8665 45.961 35.79C46.0236 35.7482 46.0863 35.7134 46.1489 35.6786C46.1489 35.6786 46.1489 35.6786 46.1559 35.6786C46.1907 35.6647 46.2255 35.6438 46.2603 35.6298C46.4065 35.5672 46.5527 35.5115 46.7059 35.4697C46.9843 35.3932 47.1375 35.0242 47.0261 34.7666H47.04Z" fill="white" fill-opacity="0.8"/>
<path d="M38.9923 36.333C38.8183 36.1102 38.4702 36.0197 38.2335 36.2007C37.3981 36.8412 36.7437 37.7184 36.4096 38.7208C36.3608 38.867 36.333 38.9993 36.3887 39.1455C36.4374 39.2708 36.5418 39.3961 36.6671 39.4518C36.9108 39.5562 37.2937 39.4797 37.3911 39.1942C37.4677 38.9715 37.5582 38.7556 37.6627 38.5468C37.7183 38.4424 37.774 38.3379 37.8297 38.2405C37.8297 38.2335 37.8437 38.2196 37.8506 38.2057C37.8506 38.2057 37.8506 38.2057 37.8645 38.1848C37.8645 38.1848 37.8645 38.1848 37.8645 38.1778C37.8645 38.1778 37.8715 38.1709 37.8715 38.1639C37.8715 38.1639 37.8715 38.1639 37.8715 38.1709C37.8994 38.1221 37.9342 38.0804 37.962 38.0386C38.0943 37.8506 38.2405 37.6766 38.3936 37.5095C38.4354 37.4677 38.4772 37.419 38.5259 37.3772C38.5329 37.3703 38.5468 37.3563 38.5537 37.3494C38.5468 37.3563 38.5468 37.3494 38.5677 37.3355C38.5677 37.3355 38.5816 37.3215 38.5886 37.3146C38.5886 37.3146 38.5816 37.3215 38.5746 37.3285C38.6651 37.2519 38.7556 37.1753 38.8531 37.0988C39.0759 36.9247 39.1664 36.5766 38.9854 36.3399L38.9923 36.333Z" fill="white" fill-opacity="0.8"/>
<path d="M37.8506 38.2057C37.8506 38.2057 37.8646 38.1848 37.8785 38.1639C37.8785 38.1639 37.8785 38.1639 37.8785 38.1708C37.8785 38.1778 37.8646 38.1917 37.8576 38.1987L37.8506 38.2057Z" fill="white" fill-opacity="0.8"/>
<path d="M38.5607 37.3494C38.5607 37.3494 38.5747 37.3355 38.5886 37.3285C38.5886 37.3285 38.5886 37.3285 38.5816 37.3285C38.5816 37.3285 38.5677 37.3424 38.5607 37.3424V37.3494Z" fill="white" fill-opacity="0.8"/>
<path d="M69.3174 39.0758C68.9206 33.8616 65.7808 28.7238 62.1747 25.0759C58.4293 21.2888 53.4239 18.7408 48.1052 18.1491C46.7894 18.0029 45.4667 17.982 44.144 18.0655C44.0326 18.0725 43.9421 18.1003 43.8655 18.1421C34.0287 18.351 25.3544 24.7278 21.066 33.5135C18.6991 38.3658 17.432 43.9977 17.7941 49.407C18.1352 54.6143 20.53 59.3065 24.1918 62.9683C28.0904 66.8808 33.2002 69.4983 38.7278 69.9787C41.6099 70.2293 44.5826 70.1249 47.4438 69.735C50.131 69.3661 52.7068 68.5794 54.9763 67.0618C59.3204 64.1587 62.662 59.5014 65.0708 54.9345C66.3169 52.5676 67.3194 50.0822 68.0852 47.5134C68.8927 44.8053 69.5401 41.9232 69.3174 39.0758ZM65.4258 50.9942C63.5113 55.6098 60.7267 59.94 57.1832 63.4765C55.394 65.2587 53.3195 66.7555 50.9107 67.5769C48.4045 68.4263 45.7104 68.6212 43.0858 68.7186C40.2942 68.8161 37.4747 68.6699 34.7805 67.8902C32.2465 67.1523 29.8726 65.8574 27.7632 64.2771C24.0247 61.4715 21.0103 57.5939 19.7572 53.0479C18.3788 48.0564 19.1794 42.3757 20.8641 37.5443C24.0804 28.3131 31.8566 20.7458 41.8257 19.611C43.0301 19.4718 44.2414 19.437 45.4528 19.4996C45.6268 19.5066 45.766 19.4509 45.8844 19.3743C55.5263 19.5066 63.9778 26.4195 67.1453 35.4349C68.9554 40.5796 67.4516 46.128 65.4328 51.0012L65.4258 50.9942Z" fill="white" fill-opacity="0.8"/>
<path d="M60.8102 31.5851C60.3855 24.5538 59.0698 17.5017 56.4591 10.9368C54.3149 5.54848 50.3886 -0.174014 43.9072 2.78044e-05C42.9883 0.0278745 42.1042 0.222801 41.2688 0.55C35.2469 2.26953 31.9401 8.16607 29.8864 13.7424C27.3663 20.5857 26.0575 27.791 25.0829 34.9963C23.245 48.6134 22.0824 63.386 29.1972 75.7778C30.7218 78.4302 32.6084 80.8668 34.8501 82.9553C37.0709 85.0299 39.8277 86.9791 42.9953 86.9931C45.9888 87.007 48.5855 85.1204 50.4512 82.9274C52.5745 80.4212 54.0434 77.3651 55.1364 74.288C56.3199 70.9603 57.1344 67.5143 57.8723 64.0613C58.666 60.3577 59.3204 56.6193 59.8286 52.867C60.7823 45.8217 61.2418 38.6791 60.8102 31.5712V31.5851ZM59.021 48.2235C58.3179 55.0877 57.1205 61.931 55.4218 68.6212C54.6352 71.7192 53.6814 74.7893 52.2404 77.6575C50.9107 80.3099 49.1424 82.9831 46.5666 84.5704C40.8232 88.1209 34.9406 81.8693 31.8775 77.5043C24.2753 66.6789 24.338 52.8461 25.779 40.2385C26.5518 33.4648 27.5055 26.6632 29.2808 20.0775C30.151 16.8403 31.2022 13.6171 32.6502 10.5887C33.9869 7.79014 35.783 5.1447 38.3797 3.37644C38.9784 2.9657 39.6188 2.61065 40.2802 2.32523C40.4403 2.367 40.6213 2.35307 40.8023 2.24865C41.0599 2.09549 41.3314 1.97018 41.6029 1.85879C41.8884 1.77525 42.1738 1.69868 42.4662 1.64298C42.5915 1.6221 42.6889 1.5664 42.7725 1.50375C44.7914 1.09301 46.9773 1.60817 48.7595 2.6385C51.3353 4.1283 53.0758 6.75981 54.3149 9.39828C57.0857 15.2948 58.5128 21.8736 59.1811 28.3201C59.8634 34.9407 59.6963 41.6169 59.0141 48.2305L59.021 48.2235Z" fill="white" fill-opacity="0.8"/>
<path d="M46.4831 22.9178C41.2061 18.2466 35.2957 14.1949 28.8074 11.3963C23.4887 9.10589 16.6593 7.8319 12.2038 12.545C11.5703 13.2133 11.0899 13.9791 10.7279 14.8005C7.68568 20.2724 9.5166 26.7816 12.0089 32.1769C15.0651 38.7974 19.2351 44.8193 23.6418 50.5974C31.975 61.5273 41.589 72.7912 55.3871 76.5227C58.3388 77.3233 61.4019 77.7062 64.4581 77.6018C67.4934 77.4973 70.8211 76.9265 73.0697 74.6987C75.193 72.5894 75.7012 69.4218 75.4645 66.5536C75.2 63.2816 74.0722 60.0792 72.6729 57.1275C71.1552 53.939 69.2965 50.9246 67.382 47.9659C65.3283 44.7845 63.1424 41.6795 60.852 38.6721C56.5427 33.0192 51.8157 27.6379 46.49 22.9178H46.4831ZM56.9882 35.9501C61.3462 41.3036 65.3353 46.9843 68.8648 52.9157C70.5008 55.6655 71.9976 58.5129 73.007 61.5482C73.9399 64.3676 74.5804 67.5004 73.8842 70.4452C72.3318 77.017 63.748 76.7524 58.4989 75.8405C45.4736 73.564 35.7343 63.7341 27.8397 53.8068C23.6001 48.4741 19.4648 42.9883 16.0606 37.0709C14.3898 34.1679 12.8512 31.1396 11.7374 27.979C10.707 25.0551 10.1083 21.9154 10.6931 18.8244C10.8254 18.1073 11.0273 17.4112 11.2918 16.7359C11.438 16.6523 11.5564 16.5131 11.6051 16.3112C11.6817 16.0188 11.7791 15.7404 11.8905 15.4689C12.0367 15.2113 12.1829 14.9537 12.35 14.71C12.4196 14.6056 12.4544 14.5012 12.4614 14.3968C13.5961 12.6772 15.5036 11.4937 17.5016 10.9647C20.3768 10.1989 23.4678 10.8254 26.2107 11.814C32.337 14.0208 38.0038 17.6618 43.0301 21.7552C48.1887 25.9531 52.7973 30.7915 56.9882 35.9501Z" fill="white" fill-opacity="0.8"/>
<path d="M23.5374 38.0385C18.8661 43.3155 14.8144 49.226 12.0158 55.7142C9.72546 61.0329 8.45147 67.8623 13.1645 72.3178C13.8328 72.9513 14.5986 73.4317 15.4201 73.7937C20.892 76.8359 27.4011 75.005 32.7964 72.5127C39.417 69.4566 45.4388 65.2865 51.217 60.8798C62.1468 52.5467 73.4108 42.9326 77.1423 29.1346C77.9429 26.1828 78.3258 23.1197 78.2213 20.0635C78.1169 17.0282 77.5461 13.7005 75.3183 11.4519C73.2089 9.32862 70.0414 8.82042 67.1732 9.05711C63.9012 9.32166 60.6988 10.4494 57.7471 11.8487C54.5586 13.3664 51.5442 15.2252 48.5855 17.1396C45.404 19.1933 42.2991 21.3793 39.2917 23.6697C33.6388 27.9789 28.2574 32.7059 23.5374 38.0316V38.0385ZM36.5697 27.5334C41.9232 23.1754 47.6039 19.1863 53.5353 15.6568C56.2851 14.0208 59.1324 12.524 62.1677 11.5146C64.9872 10.5817 68.1199 9.94125 71.0647 10.6374C77.6366 12.1899 77.372 20.7736 76.46 26.0227C74.1836 39.048 64.3537 48.7874 54.4263 56.6819C49.0937 60.9216 43.6079 65.0568 37.6905 68.461C34.7875 70.1318 31.7591 71.6704 28.5985 72.7842C25.6746 73.8146 22.5349 74.4133 19.4439 73.8285C18.7269 73.6962 18.0307 73.4943 17.3554 73.2298C17.2719 73.0836 17.1327 72.9652 16.9308 72.9165C16.6384 72.8399 16.3599 72.7425 16.0884 72.6311C15.8308 72.4849 15.5733 72.3387 15.3296 72.1716C15.2252 72.102 15.1208 72.0672 15.0163 72.0602C13.2968 70.9255 12.1133 69.018 11.5842 67.02C10.8184 64.1448 11.445 61.0538 12.4335 58.3109C14.6404 52.1847 18.2813 46.5179 22.3748 41.4915C26.5727 36.3329 31.4111 31.7243 36.5697 27.5334Z" fill="white" fill-opacity="0.8"/>
<path d="M31.5851 23.7184C24.5538 24.1431 17.5016 25.4588 10.9368 28.0695C5.54845 30.2067 -0.174044 34.1331 -2.71318e-06 40.6214C0.027844 41.5403 0.222771 42.4244 0.549969 43.2598C2.2695 49.2817 8.16604 52.5885 13.7423 54.6422C20.5857 57.1623 27.791 58.4711 34.9963 59.4457C48.6133 61.2836 63.386 62.4462 75.7778 55.3314C78.4302 53.8068 80.8668 51.9202 82.9553 49.6785C85.0298 47.4577 86.9791 44.7009 86.993 41.5333C87.007 38.5398 85.1203 35.9431 82.9274 34.0774C80.4212 31.9541 77.365 30.4852 74.288 29.3922C70.9603 28.2087 67.5143 27.3942 64.0613 26.6563C60.3577 25.8626 56.6193 25.2082 52.8669 24.7C45.8217 23.7463 38.679 23.2868 31.5712 23.7184H31.5851ZM48.2235 25.5006C55.0877 26.2037 61.931 27.4012 68.6212 29.0998C71.7191 29.8865 74.7892 30.8402 77.6574 32.2813C80.3098 33.611 82.9831 35.3792 84.5704 37.955C88.1208 43.6984 81.8692 49.581 77.5043 52.6442C66.6789 60.2463 52.846 60.1837 40.2385 58.7426C33.4647 57.9698 26.6632 57.0161 20.0775 55.2409C16.8403 54.3707 13.617 53.3195 10.5887 51.8714C7.79011 50.5348 5.14467 48.7387 3.37641 46.142C2.96567 45.5433 2.61062 44.9028 2.3252 44.2414C2.36697 44.0813 2.35304 43.9003 2.24862 43.7193C2.09546 43.4617 1.97015 43.1902 1.85876 42.9187C1.77522 42.6333 1.69864 42.3479 1.64295 42.0555C1.62207 41.9302 1.56637 41.8327 1.50372 41.7492C1.09298 39.7303 1.60814 37.5443 2.63847 35.7621C4.12827 33.1863 6.75978 31.4459 9.39825 30.2067C15.2948 27.436 21.8736 26.0088 28.3201 25.3405C34.9406 24.6583 41.6169 24.8253 48.2304 25.5076L48.2235 25.5006Z" fill="white" fill-opacity="0.8"/>
</g>
<defs>
<clipPath id="clip0_455_639">
<rect width="87" height="87" fill="white"/>
</clipPath>
</defs>
</svg>
