<svg width="128" height="162" viewBox="0 0 128 162" fill="none" xmlns="http://www.w3.org/2000/svg">
<g clip-path="url(#clip0_455_546)">
<path d="M1.81464 30.7791C3.22837 32.7711 5.04294 34.3658 7.23246 35.4666C8.37974 36.0392 9.38642 34.3097 8.22948 33.7397C6.35322 32.8034 4.74704 31.4842 3.53463 29.7799C2.78938 28.7372 1.05973 29.7391 1.80757 30.7914L1.81723 30.7888L1.81464 30.7791Z" fill="white" fill-opacity="0.8"/>
<path d="M9.99235 27.6458C7.0645 31.826 6.82675 37.1593 9.23545 41.6281C9.85393 42.7772 11.4766 41.7627 10.9625 40.6167C10.8166 40.3038 10.6777 39.9787 10.5317 39.6658C10.0002 38.4934 8.27571 39.5145 8.80466 40.6772C8.95062 40.9901 9.0895 41.3153 9.23545 41.6281C9.80706 41.2886 10.3909 40.9562 10.9625 40.6167C8.86435 36.7272 9.19653 32.2486 11.7218 28.6525C12.4633 27.5945 10.7267 26.6001 9.99494 27.6555L9.99235 27.6458Z" fill="white" fill-opacity="0.8"/>
<path d="M19.3654 30.8283C20.6187 30.6374 21.8843 30.4536 23.1376 30.2627C24.4128 30.0763 23.8829 28.1374 22.6199 28.3309C21.3666 28.5218 20.1011 28.7056 18.8478 28.8965C17.5726 29.0829 18.1025 31.0218 19.3654 30.8283Z" fill="white" fill-opacity="0.8"/>
<path d="M20.9875 34.6797C21.9729 34.5709 22.9609 34.4719 23.9463 34.3631C24.479 34.3032 24.9533 33.9483 24.9533 33.3686C24.9572 32.881 24.5011 32.2992 23.9588 32.3617C22.9733 32.4704 21.9853 32.5695 20.9999 32.6783C20.4672 32.7382 19.9929 33.093 19.993 33.6728C19.989 34.1604 20.4452 34.7422 20.9875 34.6797Z" fill="white" fill-opacity="0.8"/>
<path d="M40.4548 18.738C39.615 22.5969 38.768 26.468 37.9281 30.3268C37.6533 31.5807 39.5858 32.1085 39.8606 30.8547C40.7005 26.9958 41.5474 23.1247 42.3873 19.2658C42.6621 18.012 40.7297 17.4841 40.4548 18.738Z" fill="white" fill-opacity="0.8"/>
<path d="M41.0752 19.8555C43.3585 22.9293 45.4713 26.1005 47.4283 29.386C48.0873 30.4931 49.8144 29.4817 49.1554 28.3745C47.1984 25.0891 45.0733 21.9108 42.8022 18.8441C42.0429 17.8259 40.3106 18.8181 41.0752 19.8555Z" fill="white" fill-opacity="0.8"/>
<path d="M41.5506 27.9275C43.2257 27.1474 44.9009 26.3672 46.5664 25.5897C47.7362 25.0485 46.7151 23.324 45.555 23.8626C43.8798 24.6428 42.2046 25.4229 40.5391 26.2005C39.3693 26.7417 40.3905 28.4661 41.5506 27.9275Z" fill="white" fill-opacity="0.8"/>
<path d="M48.2112 19.4032C50.5856 21.5415 53.2203 23.2995 56.1174 24.6455C57.2763 25.1839 58.283 23.4544 57.1145 22.9186C54.3714 21.6452 51.8624 20.0088 49.6112 17.9824C48.6581 17.13 47.2459 18.5437 48.2016 19.4057L48.2112 19.4032Z" fill="white" fill-opacity="0.8"/>
<path d="M53.9956 16.6109C52.5858 19.463 51.1663 22.3176 49.7538 25.1601C49.1812 26.3073 50.9107 27.314 51.4807 26.1571C52.8906 23.305 54.3101 20.4503 55.7225 17.6079C56.2951 16.4606 54.5656 15.4539 53.9956 16.6109Z" fill="white" fill-opacity="0.8"/>
<path d="M58.5382 10.6521C58.5382 10.6521 58.3856 10.662 58.5093 10.6599C58.6014 10.6559 58.6619 10.6501 58.7521 10.6777C59.0254 10.7701 59.1356 10.8337 59.2106 11.1138C59.4048 11.8383 58.6059 12.7977 58.2045 13.309C57.7485 13.8868 57.8648 14.7459 58.6523 14.9801C60.2246 15.4388 61.7645 15.2746 63.2427 14.6094C64.4177 14.0875 63.3966 12.363 62.2313 12.8823C61.2514 13.3209 60.2014 13.3434 59.1801 13.0476L59.6279 14.7187C60.6961 13.3351 62.1299 11.0356 60.5388 9.46385C59.3844 8.32379 57.0777 8.33106 56.6206 10.141C56.3019 11.3859 58.2344 11.9138 58.5531 10.6689L58.5382 10.6521Z" fill="white" fill-opacity="0.8"/>
<path d="M66.7036 15.0072C67.0171 17.4907 67.5572 19.8927 68.3878 22.2584C68.8131 23.4592 70.7501 22.9609 70.3196 21.7407C69.5479 19.556 68.9886 17.3144 68.705 15.0196C68.5431 13.7585 66.5488 13.7339 66.7036 15.0072Z" fill="white" fill-opacity="0.8"/>
<path d="M65.3973 20.4094C67.7007 19.7715 69.9918 19.1265 72.2952 18.4886C73.5387 18.1451 73.021 16.2132 71.7776 16.5568C69.4742 17.1947 67.183 17.8396 64.8797 18.4775C63.6362 18.8211 64.1538 20.7529 65.3973 20.4094Z" fill="white" fill-opacity="0.8"/>
<path d="M75.88 11.5442C76.851 13.8929 77.8219 16.2416 78.7833 18.5929C79.2639 19.7686 81.208 19.258 80.7151 18.0753C79.7441 15.7266 78.7731 13.3778 77.8118 11.0265C77.3312 9.85086 75.3871 10.3614 75.88 11.5442Z" fill="white" fill-opacity="0.8"/>
<path d="M76.9918 12.0227C77.8362 11.4652 78.7611 10.7826 79.7811 10.5713C80.9706 10.3354 83.0716 11.2219 81.7013 12.6761C80.9364 13.4919 79.9517 13.6418 79.466 14.7658C79.062 15.692 79.8991 16.5754 80.8352 16.1279C81.5524 15.7908 82.3943 15.2235 83.2236 15.4982C84.0788 15.2898 84.2712 15.6213 83.7955 16.4735C83.902 17.18 83.6378 17.6235 82.9784 17.7898C81.9494 18.6246 80.2981 18.9531 79.0321 19.251C77.7757 19.5462 78.2933 21.4781 79.5497 21.1828C81.8088 20.65 87.1464 19.1266 86.5408 15.8621C85.919 12.4984 81.9437 13.3876 79.8237 14.4008C80.2778 14.8589 80.7389 15.3047 81.1929 15.7628C81.7113 14.568 83.3375 14.3393 83.9429 13.1211C84.4403 12.1182 84.2444 11.0008 83.6133 10.1139C81.6305 7.31162 78.2569 8.78498 75.9706 10.2983C74.908 11.0075 75.9098 12.7371 76.9821 12.0253L76.9918 12.0227Z" fill="white" fill-opacity="0.8"/>
<path d="M87.4453 5.17377C87.4875 4.94504 87.624 4.83602 87.8823 4.91172C88.2774 5.03363 88.2981 5.69065 88.2669 5.99924C88.1875 6.90051 87.4935 7.74905 87.0428 8.50132C86.5851 9.26584 87.3424 10.1603 88.1712 9.96929C89.3889 9.68441 90.5991 9.52578 91.8526 9.49014C93.1377 9.4564 93.1501 7.45498 91.865 7.48873C90.4466 7.52715 89.0355 7.70855 87.651 8.02778C88.0303 8.51624 88.4 9.00729 88.7793 9.49575C89.8079 7.77076 91.1804 5.43598 89.4712 3.61635C88.2858 2.36037 85.8121 2.82648 85.5102 4.63628C85.2985 5.89393 87.2239 6.434 87.4427 5.16411L87.4453 5.17377Z" fill="white" fill-opacity="0.8"/>
<path d="M24.1832 48.1516C25.6131 48.0791 27.0405 47.9968 28.4704 47.9243C29.7574 47.859 29.7698 45.8576 28.4828 45.9229C27.0529 45.9954 25.6255 46.0777 24.1956 46.1502C22.9087 46.2155 22.8962 48.217 24.1832 48.1516Z" fill="white" fill-opacity="0.8"/>
<path d="M25.6411 52.6268L30.1134 51.4285C31.3594 51.0946 30.8418 49.1627 29.5957 49.4966L25.1235 50.6949C23.8775 51.0288 24.3951 52.9607 25.6411 52.6268Z" fill="white" fill-opacity="0.8"/>
<path d="M39.8688 44.1765C39.1974 47.2344 38.803 50.3217 38.6786 53.4505C38.6299 54.737 40.6313 54.7494 40.68 53.4629C40.7975 50.5016 41.1683 47.5967 41.8013 44.7043C42.0761 43.4504 40.1437 42.9226 39.8688 44.1765Z" fill="white" fill-opacity="0.8"/>
<path d="M40.0345 44.7947C42.3053 47.1264 44.0993 49.8033 45.3339 52.8267C45.8146 54.0024 47.7516 53.5041 47.2658 52.3091C45.8993 48.9482 43.9839 45.9726 41.4441 43.3713C40.5457 42.4525 39.1335 43.8662 40.0345 44.7947Z" fill="white" fill-opacity="0.8"/>
<path d="M40.5932 53.0618C42.1719 52.4627 43.7481 51.8541 45.3268 51.255C46.5199 50.8008 46.0119 48.8663 44.8092 49.3232C43.2304 49.9222 41.6543 50.5309 40.0755 51.1299C38.8824 51.5842 39.3904 53.5186 40.5932 53.0618Z" fill="white" fill-opacity="0.8"/>
<path d="M54.4253 36.5284C48.4307 43.9839 51.3753 54.3552 60.4655 57.4479C61.6854 57.8664 62.2132 55.9339 60.9933 55.5154C53.4085 52.9408 50.8137 44.184 55.8461 37.9284C56.6468 36.9373 55.2306 35.5154 54.4227 36.5187L54.4253 36.5284Z" fill="white" fill-opacity="0.8"/>
<path d="M60.5202 47.7223C62.3694 47.0508 64.216 46.3697 66.0749 45.6956C67.2732 45.2606 66.7652 43.3262 65.5573 43.7637C63.7081 44.4352 61.8614 45.1164 60.0026 45.7904C58.8043 46.2254 59.3123 48.1598 60.5202 47.7223Z" fill="white" fill-opacity="0.8"/>
<path d="M70.9083 35.1037C71.5117 37.6648 72.3681 40.127 73.4468 42.5298C73.9686 43.7047 75.6931 42.6836 75.1738 41.5183C74.1708 39.2817 73.4066 36.9707 72.8401 34.5861C72.5449 33.3297 70.613 33.8473 70.9083 35.1037Z" fill="white" fill-opacity="0.8"/>
<path d="M72.4024 35.3866C73.0916 34.8293 76.0052 32.682 76.3514 35.0946C76.5021 36.1206 75.1643 37.3487 74.5248 37.9755C73.7135 38.7727 74.7644 40.1061 75.7422 39.5439C76.3524 39.194 77.0791 38.6991 77.7882 38.6023C79.0029 38.4217 80.1826 39.1927 78.9733 40.1275C77.7763 41.0694 75.6615 41.5222 74.2081 41.9323C72.9646 42.2759 73.4823 44.2077 74.7257 43.8642C76.8456 43.2755 82.3279 42.1378 81.5188 38.8864C80.6742 35.541 76.8234 36.6246 74.7333 37.8265C75.1423 38.3484 75.5417 38.8729 75.9507 39.3948C77.509 37.8695 79.4595 35.1418 77.6057 33.0917C75.6552 30.9123 72.7772 32.5738 70.9842 33.9963C69.9764 34.7943 71.4094 36.2014 72.4076 35.406L72.4024 35.3866Z" fill="white" fill-opacity="0.8"/>
<path d="M82.9996 29.5759C83.4356 28.9622 84.2638 28.3054 85.0347 28.7097C85.7199 29.0644 85.4989 29.6309 85.1581 30.1363C84.5614 31.0002 83.9438 31.6316 83.88 32.746C83.8497 33.2511 84.349 33.8006 84.8745 33.753L88.6753 33.4489C89.9519 33.3449 89.974 31.3409 88.6878 31.4475C87.4208 31.5488 86.1539 31.6502 84.887 31.7516C85.2152 32.0881 85.5532 32.422 85.8815 32.7585C85.9248 31.8772 87.0165 31.1602 87.3228 30.3328C87.6804 29.388 87.484 28.3847 86.8138 27.6221C85.1052 25.6885 82.5279 26.7725 81.2604 28.5718C80.5164 29.6201 82.2529 30.6145 82.9873 29.5688L82.9996 29.5759Z" fill="white" fill-opacity="0.8"/>
<path d="M70.8125 48.7329C77.7498 47.4228 84.4428 45.4327 90.9539 42.7252C92.127 42.2349 91.619 40.3005 90.4363 40.7934C83.9155 43.5034 77.2225 45.4935 70.2949 46.8011C69.0326 47.0357 69.5502 48.9676 70.8125 48.7329Z" fill="white" fill-opacity="0.8"/>
<path d="M79.3689 49.37C78.7915 52.3925 78.2238 55.4123 77.6489 58.4444C77.4057 59.7002 79.3407 60.2377 79.5814 58.9722C80.1588 55.9498 80.7266 52.93 81.3014 49.8979C81.5447 48.6421 79.6096 48.1046 79.3689 49.37Z" fill="white" fill-opacity="0.8"/>
<path d="M80.3878 50.8156C81.969 52.8145 83.4711 54.8656 84.9159 56.9735C85.6347 58.0336 87.374 57.0292 86.6429 55.962C85.1084 53.7125 83.4877 51.5276 81.7974 49.3923C80.9994 48.3845 79.602 49.8149 80.3878 50.8156Z" fill="white" fill-opacity="0.8"/>
<path d="M80.4982 56.9459C81.9706 55.7956 83.6258 54.9794 85.4243 54.4665C86.6652 54.1133 86.1475 52.1814 84.9067 52.5346C82.7533 53.153 80.8395 54.1628 79.0748 55.5363C78.0645 56.3246 79.4975 57.7317 80.4982 56.9459Z" fill="white" fill-opacity="0.8"/>
<path d="M91.4133 27.2076C97.7719 31.1564 98.9585 39.2552 93.9852 44.8428C93.1329 45.7959 94.5491 47.2178 95.4086 46.2524C101.258 39.6847 99.8964 30.1212 92.4199 25.4781C91.3266 24.7979 90.3322 26.5344 91.4229 27.205L91.4133 27.2076Z" fill="white" fill-opacity="0.8"/>
<path d="M36.8225 85.0062C38.1168 84.0796 39.5308 83.6386 41.1233 83.7088C42.4123 83.7672 42.4247 81.7658 41.1357 81.7074C39.2205 81.6305 37.3641 82.159 35.8014 83.2817C34.7684 84.0243 35.7605 85.7566 36.8128 85.0087L36.8225 85.0062Z" fill="white" fill-opacity="0.8"/>
<path d="M38.1167 89.4113C39.5119 88.8614 40.9243 88.6072 42.4291 88.6595C43.7155 88.7082 43.7279 86.7068 42.4415 86.6581C40.7814 86.606 39.1533 86.8662 37.5991 87.4794C36.4182 87.9407 36.9191 89.8874 38.1167 89.4113Z" fill="white" fill-opacity="0.8"/>
<path d="M51.8014 75.0708C50.7658 78.9717 50.243 82.932 50.2259 86.9638C50.2184 88.2496 52.2198 88.262 52.2273 86.9762C52.2375 83.1119 52.7367 79.334 53.7339 75.5986C54.0622 74.3511 52.1297 73.8233 51.8014 75.0708Z" fill="white" fill-opacity="0.8"/>
<path d="M52.5892 77.1994C54.8649 79.8197 56.6913 82.695 58.1367 85.8483C58.6779 87.0181 60.3927 85.9996 59.8638 84.8368C58.3454 81.5271 56.381 78.5231 53.9988 75.7761C53.1577 74.8005 51.7506 76.2335 52.5892 77.1994Z" fill="white" fill-opacity="0.8"/>
<path d="M52.0801 84.5724C53.5676 84.1738 55.0597 83.7533 56.5446 83.3451C57.7906 83.0112 57.2704 81.0697 56.027 81.4132C54.5394 81.8118 53.0474 82.2323 51.5625 82.6405C50.3164 82.9744 50.8367 84.9159 52.0801 84.5724Z" fill="white" fill-opacity="0.8"/>
<path d="M62.6121 68.9751C58.6608 80.2313 61.3699 94.051 73.9293 98.0362C75.1633 98.4302 75.6815 96.5003 74.4571 96.1037C62.8927 92.4317 60.97 79.6539 64.5323 69.4958C64.9605 68.2733 63.0306 67.7552 62.5999 68.968L62.6121 68.9751Z" fill="white" fill-opacity="0.8"/>
<path d="M68.6181 81.2281C69.7558 80.799 70.8976 80.6173 72.1165 80.6841C73.401 80.7644 73.4134 78.763 72.1289 78.6827C70.7496 78.5967 69.3875 78.8064 68.0978 79.2866C66.9048 79.7409 67.4127 81.6753 68.6155 81.2184L68.6181 81.2281Z" fill="white" fill-opacity="0.8"/>
<path d="M78.4309 70.7514C78.7442 73.6594 79.3833 76.4697 80.3999 79.2203C80.8445 80.416 82.779 79.908 82.3318 78.7027C81.3837 76.1304 80.7306 73.4998 80.4349 70.7735C80.2923 69.5072 78.298 69.4826 78.4335 70.761L78.4309 70.7514Z" fill="white" fill-opacity="0.8"/>
<path d="M79.0036 71.3433C79.4416 70.2735 80.9723 69.8426 81.8203 70.6507C82.6413 71.4349 82.3666 72.844 81.4526 73.4513C80.4833 74.0837 81.1156 75.4776 82.2207 75.2746C82.8834 75.1592 83.5468 75.0849 84.2168 75.1125C84.6973 75.1287 85.176 75.1764 85.6579 75.275C85.9528 75.6412 85.899 75.9041 85.494 76.054C84.8117 77.0236 82.7008 77.5685 81.6672 77.8455C80.4212 78.1793 80.9388 80.1112 82.1849 79.7773C84.0974 79.2649 88.3787 77.8175 88.1089 75.1877C87.8435 72.536 83.4226 73.0373 81.7031 73.3428C81.9583 73.9473 82.216 74.5615 82.4712 75.1661C84.5225 73.8193 85.0656 70.6301 83.0171 68.9738C80.9441 67.3034 78.0057 68.5463 77.0782 70.8032C76.5888 71.9904 78.5283 72.5059 79.0107 71.3311L79.0036 71.3433Z" fill="white" fill-opacity="0.8"/>
<path d="M89.7625 65.0544C90.0376 64.5355 90.8716 64.9436 91.0776 65.3646C91.5348 66.2981 90.5042 67.4749 89.9026 68.0502C89.2843 68.6404 89.752 69.7677 90.6081 69.7557C92.1115 69.7256 93.5625 69.4611 94.9674 68.9086C96.1482 68.4473 95.6499 66.5103 94.4497 66.9768C93.2135 67.4633 91.959 67.727 90.6205 67.7543C90.8557 68.3228 91.0908 68.8914 91.326 69.4599C92.7441 68.1067 94.0217 65.611 92.4569 63.8666C91.3023 62.5713 88.9315 62.3783 88.0382 64.0671C87.4411 65.2002 89.1706 66.2069 89.7651 65.0641L89.7625 65.0544Z" fill="white" fill-opacity="0.8"/>
<path d="M72.147 86.2457C81.9106 84.2404 91.3542 81.2337 100.486 77.2548C101.663 76.7426 100.642 75.0181 99.4741 75.5277C90.4895 79.4363 81.2165 82.3455 71.6293 84.3139C70.3626 84.5705 70.8899 86.4997 72.147 86.2457Z" fill="white" fill-opacity="0.8"/>
<path d="M78.8843 87.8983C79.843 90.24 80.6691 92.6275 81.3555 95.0732C81.7087 96.3141 83.6405 95.7964 83.2873 94.5556C82.6036 92.1195 81.7871 89.7294 80.8161 87.3807C80.3355 86.205 78.3985 86.7033 78.8843 87.8983Z" fill="white" fill-opacity="0.8"/>
<path d="M87.2802 84.6134C86.0204 88.0257 85.2768 91.5482 85.0151 95.1693C84.9251 96.4564 86.9239 96.4592 87.0165 95.1817C87.2687 91.7184 88.0132 88.3924 89.2126 85.1412C89.6556 83.9354 87.7258 83.4173 87.2802 84.6134Z" fill="white" fill-opacity="0.8"/>
<path d="M94.1648 85.0773C94.7678 84.5844 96.6468 83.5219 95.9982 85.1968C95.7125 85.9463 94.9687 86.7254 94.4844 87.3521C93.8316 88.1999 92.7312 89.1159 93.5603 90.2396C94.1113 90.9823 95.1949 91.0854 96.0411 90.9208C97.6589 90.6219 99.303 89.7258 100.831 89.1301C102.021 88.6661 101.513 86.7317 100.313 87.1982C99.3468 87.5711 98.3804 87.9439 97.4043 88.3193C97.0572 88.4537 95.2967 88.9151 95.277 89.1895C95.1839 89.4215 95.0811 89.6561 94.988 89.8882C95.8653 88.8352 96.7008 87.7417 97.4602 86.5961C98.0421 85.7155 98.6174 84.7331 98.1652 83.6637C97.109 81.1515 94.2132 82.4761 92.7414 83.6676C91.7459 84.4727 93.1692 85.8824 94.1648 85.0773Z" fill="white" fill-opacity="0.8"/>
<path d="M97.0371 60.869C108.505 64.5669 106.371 81.9102 102.251 90.1784C101.678 91.3257 103.407 92.3323 103.977 91.1754C108.699 81.7109 110.438 63.0863 97.5649 58.9366C96.3406 58.5399 95.8127 60.4724 97.0371 60.869Z" fill="white" fill-opacity="0.8"/>
<path d="M45.94 118.994C47.632 118.779 49.3239 118.564 51.0158 118.349C52.2769 118.187 52.299 116.183 51.0283 116.347C49.3363 116.563 47.6444 116.778 45.9524 116.993C44.6914 117.155 44.6693 119.159 45.94 118.994Z" fill="white" fill-opacity="0.8"/>
<path d="M47.6618 123.875C49.2186 123.696 50.7727 123.507 52.3294 123.328C53.5931 123.176 53.6177 121.182 52.3418 121.327C50.7851 121.506 49.231 121.695 47.6743 121.874C46.4106 122.026 46.3859 124.02 47.6618 123.875Z" fill="white" fill-opacity="0.8"/>
<path d="M60.8975 111.104C60.7697 114.607 60.6444 118.119 60.5165 121.621C60.4678 122.908 62.4692 122.92 62.5179 121.634C62.6458 118.131 62.7711 114.619 62.8989 111.117C62.9476 109.83 60.9462 109.818 60.8975 111.104Z" fill="white" fill-opacity="0.8"/>
<path d="M61.6126 112.228C62.9845 113.175 63.6646 115.249 64.3775 116.673C65.1104 118.133 65.8432 119.594 66.5832 121.041C67.1604 122.191 68.8875 121.18 68.3102 120.03C67.3539 118.122 66.388 116.218 65.4317 114.31C64.6763 112.804 64.0279 111.466 62.6167 110.488C61.5613 109.757 60.5669 111.493 61.6197 112.215L61.6126 112.228Z" fill="white" fill-opacity="0.8"/>
<path d="M62.0484 119.534L67.332 118.118C68.5781 117.784 68.0604 115.852 66.8144 116.186L61.5308 117.602C60.2847 117.936 60.8024 119.868 62.0484 119.534Z" fill="white" fill-opacity="0.8"/>
<path d="M73.4588 118.226C74.7048 117.892 74.1872 115.96 72.9411 116.294C71.6951 116.628 72.2127 118.56 73.4588 118.226Z" fill="white" fill-opacity="0.8"/>
<path d="M76.3405 107.267C77.3092 109.916 78.2876 112.563 79.2564 115.213C79.701 116.408 81.6355 115.9 81.1883 114.695C80.2195 112.046 79.2411 109.399 78.2723 106.749C77.8277 105.553 75.8933 106.061 76.3405 107.267Z" fill="white" fill-opacity="0.8"/>
<path d="M77.1219 108.445C78.0805 108.467 78.8667 108.194 79.7532 107.833C80.8085 107.405 80.8975 106.926 81.5824 108.129C82.2672 109.333 81.6679 109.608 80.7948 110.483C79.9481 111.342 81.0227 112.493 82.0122 112.052C82.383 111.89 83.7948 111.17 84.1919 111.416C84.4278 112.026 84.6636 112.635 84.8994 113.245C84.6614 113.516 84.3867 113.766 84.0893 113.969C83.1555 114.696 82.1273 115.147 80.9901 115.462C79.7441 115.796 80.2617 117.728 81.5078 117.394C83.8163 116.776 87.878 114.818 87.3275 111.797C86.7652 108.656 83.021 109.442 81.0033 110.334C81.4123 110.856 81.8117 111.381 82.2207 111.903C83.7114 110.396 85.4077 107.839 83.4233 105.959C81.4093 104.045 79.2802 106.531 77.1299 106.465C75.8364 106.429 75.8336 108.427 77.1175 108.466L77.1219 108.445Z" fill="white" fill-opacity="0.8"/>
<path d="M87.4654 102.112C87.9785 101.322 89.3547 101.088 89.9535 101.932C90.5497 102.766 89.9739 103.862 89.1556 104.247C88.2942 104.664 88.6794 106.217 89.6551 106.111C91.1732 105.943 92.6984 105.762 94.2164 105.593C95.4827 105.45 95.5048 103.446 94.2289 103.592C92.7108 103.76 91.1856 103.941 89.6676 104.11L90.1671 105.974C92.1474 105.019 92.8847 102.13 91.3213 100.468C89.7256 98.7626 86.9395 99.2606 85.7288 101.117C85.0241 102.196 86.7607 103.191 87.4557 102.114L87.4654 102.112Z" fill="white" fill-opacity="0.8"/>
<path d="M100.51 97.8607C99.868 102.691 99.0318 107.491 98.0133 112.268C97.7481 113.519 99.6735 114.059 99.9458 112.796C101.003 107.854 101.855 102.884 102.514 97.8828C102.679 96.6065 100.68 96.6038 100.512 97.8704L100.51 97.8607Z" fill="white" fill-opacity="0.8"/>
<path d="M106.889 100.458C107.69 99.8915 108.488 99.5846 109.456 99.4495C109.051 99.2161 108.635 98.9757 108.231 98.7423C108.657 101.144 108.097 103.458 106.731 105.47C106.293 106.115 106.88 106.952 107.588 106.969C109.236 107.014 110.891 107.047 112.539 107.092C113.83 107.119 113.845 105.127 112.551 105.09C110.903 105.045 109.248 105.013 107.601 104.968C107.89 105.47 108.168 105.965 108.458 106.467C110.129 104.011 110.675 101.141 110.153 98.2273C110.051 97.6541 109.427 97.4487 108.928 97.5202C107.781 97.6826 106.817 98.0651 105.871 98.7432C104.825 99.4788 105.83 101.218 106.882 100.47L106.889 100.458Z" fill="white" fill-opacity="0.8"/>
<path d="M51.356 146.355C53.3054 146.019 55.189 145.514 57.0453 144.831C58.2435 144.396 57.7355 142.461 56.5276 142.899C54.6687 143.573 52.7852 144.078 50.8383 144.423C49.5735 144.648 50.1008 146.577 51.356 146.355Z" fill="white" fill-opacity="0.8"/>
<path d="M52.19 150.511C53.8616 150.529 55.4819 150.24 57.0362 149.626C58.2144 149.155 57.7161 147.218 56.5185 147.694C55.1233 148.244 53.7065 148.52 52.212 148.507C50.9237 148.49 50.9113 150.491 52.1996 150.508L52.19 150.511Z" fill="white" fill-opacity="0.8"/>
<path d="M66.9647 138.963C66.341 143.127 66.1559 147.266 66.4618 151.459C66.5561 152.738 68.5601 152.761 68.4632 151.472C68.175 147.46 68.2971 143.472 68.8972 139.491C69.087 138.229 67.1616 137.689 66.9647 138.963Z" fill="white" fill-opacity="0.8"/>
<path d="M68.2432 140.991C68.6456 140.832 69.0455 140.663 69.4479 140.503C69.0766 140.354 68.7028 140.195 68.3316 140.046C70.3009 143.339 71.9714 146.753 73.3368 150.342C73.7911 151.535 75.7255 151.027 75.2687 149.824C73.8496 146.074 72.1203 142.479 70.0587 139.035C69.8541 138.696 69.3423 138.409 68.9425 138.578C68.5401 138.738 68.1402 138.907 67.7378 139.067C66.5622 139.547 67.0605 141.484 68.2555 140.999L68.2432 140.991Z" fill="white" fill-opacity="0.8"/>
<path d="M68.9835 148.661C70.4244 148.089 71.868 147.526 73.3089 146.954C74.4897 146.492 73.9888 144.546 72.7913 145.022C71.3503 145.594 69.9068 146.157 68.4659 146.729C67.285 147.191 67.7859 149.137 68.9835 148.661Z" fill="white" fill-opacity="0.8"/>
<path d="M72.9819 135.301C73.3498 134.82 74.0747 134.511 74.6183 134.956C75.2038 135.441 74.8506 136.364 74.2905 136.669C73.3436 137.192 73.8881 138.413 74.79 138.533C75.799 138.667 76.8053 138.791 77.8142 138.924C79.0905 139.089 79.0932 137.09 77.8266 136.923C76.8177 136.789 75.8114 136.665 74.8025 136.532L75.302 138.396C76.9338 137.493 77.4759 135.112 76.1737 133.69C74.9727 132.376 72.641 132.483 71.5586 133.892C70.7919 134.894 72.1985 136.319 72.9819 135.301Z" fill="white" fill-opacity="0.8"/>
<path d="M80.7891 147.206C82.0352 146.872 81.5176 144.94 80.2715 145.274C79.0255 145.608 79.5431 147.54 80.7891 147.206Z" fill="white" fill-opacity="0.8"/>
<path d="M84.9721 134.149L87.9149 145.131C88.2488 146.377 90.1807 145.86 89.8468 144.614L86.904 133.631C86.5701 132.385 84.6383 132.903 84.9721 134.149Z" fill="white" fill-opacity="0.8"/>
<path d="M85.7964 134.984C86.6638 134.782 89.1662 133.573 89.9533 134.077C91.5862 135.109 90.1655 135.873 89.5465 136.422C88.6334 137.226 87.9359 137.868 87.4625 138.999C87.1362 139.791 88.0425 140.314 88.6814 140.226C90.1698 140.023 93.7356 138.147 94.0296 141.06C94.2674 143.377 90.9002 144.217 89.2432 144.641C87.992 144.955 88.5097 146.887 89.7609 146.572C92.7849 145.804 96.6729 144.047 95.9584 140.222C95.1798 136.041 90.8913 137.925 88.1638 138.294C88.5733 138.702 88.9828 139.11 89.3827 139.52C90.2453 137.446 93.88 136.638 92.6024 133.802C91.2397 130.802 87.4869 132.522 85.2665 133.045C84.0101 133.34 84.5278 135.272 85.7842 134.977L85.7964 134.984Z" fill="white" fill-opacity="0.8"/>
<path d="M97.0339 127.583C97.4837 127.214 98.6774 126.221 99.1827 126.987C99.7229 127.805 98.738 128.959 98.2749 129.549C97.8163 130.117 97.9379 130.995 98.7227 131.22C100.131 131.609 101.506 131.447 102.802 130.758C103.937 130.164 102.926 128.437 101.791 129.031C100.973 129.457 100.142 129.525 99.2505 129.287L99.6983 130.958C100.874 129.474 102.156 127.266 100.599 125.551C99.1114 123.9 96.9961 125.046 95.6105 126.173C94.6176 126.988 96.0383 128.388 97.0339 127.583Z" fill="white" fill-opacity="0.8"/>
</g>
<defs>
<clipPath id="clip0_455_546">
<rect width="93.8" height="141.7" fill="white" transform="translate(0 24.2772) rotate(-15)"/>
</clipPath>
</defs>
</svg>
