<svg width="222" height="58" viewBox="0 0 222 58" fill="none" xmlns="http://www.w3.org/2000/svg">
<g clip-path="url(#clip0_455_613)">
<path d="M8.55536 2.12082C2.05941 8.10585 1.04246 18.0174 6.28123 25.1612C6.93434 26.0454 8.27979 25.0053 7.62668 24.1211C2.96252 17.7599 3.77396 8.82852 9.59548 3.46626C10.3983 2.73411 9.3596 1.37741 8.55536 2.12082Z" fill="#060606" fill-opacity="0.8"/>
<path d="M17.1669 3.55462C15.076 4.96825 13.4425 6.82927 12.2568 9.03354C12.046 9.42973 12.3159 10.0018 12.7095 10.1437C14.6182 10.8683 16.5933 11.5214 18.6379 11.0054C19.6898 10.7397 19.4598 9.05192 18.3966 9.31614C16.635 9.76545 15.0045 9.19078 13.3684 8.56965C13.5151 8.94297 13.673 9.31772 13.8211 9.67979C14.8709 7.73262 16.3685 6.12869 18.2085 4.88881C19.1221 4.27378 18.0707 2.9269 17.1683 3.54337L17.1669 3.55462Z" fill="#060606" fill-opacity="0.8"/>
<path d="M17.9121 7.56145C17.6172 9.77679 17.3095 12.0019 17.0145 14.2173C16.8748 15.3088 18.5515 15.5234 18.7024 14.4333C18.9974 12.218 19.3051 9.99282 19.6 7.77748C19.7397 6.68598 18.0631 6.47138 17.9121 7.56145Z" fill="#060606" fill-opacity="0.8"/>
<path d="M23.6566 8.78846C23.3506 10.9109 23.0447 13.0333 22.7387 15.1558C22.5462 16.4807 22.1098 18.0146 22.6871 19.3122C23.6489 21.4482 26.363 21.5097 28.3616 21.3537C29.4481 21.2641 29.2054 19.5861 28.1203 19.6645C27.3687 19.7284 26.4158 19.8466 25.6834 19.5813C23.9559 18.9599 24.1494 17.2692 24.3649 15.7642C24.6882 13.5067 25.0212 11.262 25.3445 9.0045C25.5067 7.91587 23.8188 7.69984 23.6566 8.78846Z" fill="#060606" fill-opacity="0.8"/>
<path d="M34.6951 9.84677C32.0414 10.7423 30.8138 13.8104 30.6176 16.4158C30.4375 18.806 31.909 21.785 34.7056 21.5596C37.3756 21.3409 38.4921 18.2471 38.8701 16.0081C39.3485 13.1644 38.398 10.0462 35.2293 9.51486C34.1436 9.33015 33.9388 11.0195 35.0133 11.2028C39.1664 11.9059 37.1533 20.8435 33.84 19.7447C30.417 18.6089 32.9601 12.2323 35.3743 11.4205C36.4138 11.0732 35.7458 9.5009 34.7063 9.84821L34.6951 9.84677Z" fill="#060606" fill-opacity="0.8"/>
<path d="M46.0046 10.1277C42.1644 11.6262 38.9015 19.6948 43.4982 22.2046C45.3793 23.2345 48.0542 22.2616 48.7835 20.2276C49.6021 17.9421 47.9184 15.8166 45.7558 15.2882C44.6914 15.0262 44.4866 16.7155 45.5398 16.9761C48.1017 17.6014 47.3659 21.3843 44.8768 20.9056C43.3256 20.6042 43.0254 18.8388 43.0996 17.5444C43.233 15.2512 44.4581 12.5602 46.6726 11.7C47.6953 11.3048 47.0273 9.73246 46.0046 10.1277Z" fill="#060606" fill-opacity="0.8"/>
<path d="M54.6343 13.0278C56.0547 17.121 57.8796 21.003 60.0919 24.7173C60.6463 25.6574 61.9932 24.6061 61.4373 23.6771C59.3006 20.0869 57.5655 16.308 56.1954 12.3584C55.8354 11.3287 54.2758 11.9869 54.6231 13.0264L54.6343 13.0278Z" fill="#060606" fill-opacity="0.8"/>
<path d="M61.7237 13.3976C57.8806 16.3483 54.5651 19.8239 51.8123 23.8177C51.1933 24.722 52.5354 25.763 53.1657 24.8601C55.8449 20.9942 59.0448 17.6181 62.7736 14.7557C63.648 14.0899 62.5966 12.7431 61.7335 13.4103L61.7237 13.3976Z" fill="#060606" fill-opacity="0.8"/>
<path d="M66.2178 10.0957C70.4009 15.9264 69.6946 24.0363 64.461 29.0049C63.668 29.7498 64.7067 31.1065 65.5011 30.3504C71.4106 24.7477 72.3181 15.6914 67.5633 9.05558C66.9229 8.16158 65.5774 9.2017 66.2178 10.0957Z" fill="#060606" fill-opacity="0.8"/>
<path d="M76.6817 12.7845C77.022 12.3591 77.5719 13.4245 77.4964 13.7465C77.2911 14.6352 76.175 15.2243 75.4491 15.6232C74.6852 16.0515 74.8329 17.0426 75.6751 17.2533C76.8492 17.5523 78.0359 17.8414 79.21 18.1403C80.2744 18.4024 80.4792 16.713 79.426 16.4524C78.2519 16.1535 77.0652 15.8644 75.8911 15.5654C75.9697 16.113 76.0385 16.6479 76.1171 17.1955C77.6435 16.3501 79.8867 14.8187 79.1006 12.7395C78.5267 11.2364 76.4806 10.3341 75.3381 11.7547C74.6461 12.604 75.9995 13.6464 76.6915 12.7972L76.6817 12.7845Z" fill="#060606" fill-opacity="0.8"/>
<path d="M85.448 25.698C87.0605 25.6985 88.6048 25.9648 90.1086 26.5461C91.1333 26.9403 91.7922 25.3663 90.7676 24.9721C89.1203 24.3495 87.4243 24.0181 85.664 24.0101C84.589 24.0098 84.3504 25.6948 85.448 25.698Z" fill="#060606" fill-opacity="0.8"/>
<path d="M101.744 15.7062C101.411 18.1226 101.081 20.5278 100.749 22.9443C100.484 24.8318 99.891 26.9633 99.9896 28.8744C100.195 32.2746 103.752 31.4718 106.311 31.4905C107.396 31.5036 107.625 29.8059 106.527 29.8026C105.693 29.7988 103.308 30.2026 102.62 29.7714C101.061 28.8171 102.004 26.1815 102.19 24.8214C102.604 21.855 103.006 18.8872 103.42 15.9208C103.56 14.8293 101.883 14.6147 101.732 15.7048L101.744 15.7062Z" fill="#060606" fill-opacity="0.8"/>
<path d="M115.519 18.613C108.6 18.8826 104.76 32.6187 113.036 33.6323C116.132 34.0171 118.459 31.0324 119.19 28.3582C120.137 24.8883 118.967 21.2503 116.292 18.9178C115.458 18.1935 114.427 19.5484 115.25 20.2712C118.276 22.9002 119.206 29.6641 114.786 31.6717C110.766 33.5018 109.55 27.9021 110.427 25.3381C111.234 22.9597 113.037 20.3998 115.762 20.291C116.854 20.2478 116.611 18.5698 115.521 18.6018L115.519 18.613Z" fill="#060606" fill-opacity="0.8"/>
<path d="M124.031 19.9312C121.807 22.0254 121.114 24.8531 120.815 27.8114C120.611 29.7639 120.566 32.2628 122.243 33.6326C123.849 34.9361 126.178 34.3421 127.403 32.8176C129.183 30.6094 128.114 27.7048 126.483 25.792C125.778 24.9583 124.421 25.997 125.138 26.8321C125.575 27.3456 126.03 27.9069 126.291 28.5465C126.768 29.3739 126.735 30.1702 126.178 30.9453C126.14 32.1413 125.542 32.5222 124.386 32.077C122.915 32.0487 122.766 31.9611 122.484 30.5869C122.358 29.9646 122.39 29.271 122.437 28.6365C122.585 26.0479 123.12 23.1198 125.07 21.2879C125.863 20.543 124.824 19.1863 124.03 19.9424L124.031 19.9312Z" fill="#060606" fill-opacity="0.8"/>
<path d="M123.66 20.6843C125.303 21.7867 127.116 22.2817 129.093 22.2031C130.185 22.1599 129.942 20.4819 128.851 20.5139C127.368 20.5756 125.936 20.1521 124.703 19.3309C123.797 18.7232 122.754 20.0766 123.66 20.6843Z" fill="#060606" fill-opacity="0.8"/>
<path d="M136.389 24.6237C137.192 29.2442 138.258 33.7838 139.569 38.2862C139.777 38.9876 140.904 38.9374 141.137 38.281C141.963 35.9392 142.721 33.5887 143.339 31.1745C143.73 29.6349 143.981 23.388 145.042 22.3344C146.577 20.7925 150.664 22.6422 152.585 23.0025C155.98 23.6428 159.388 24.1819 162.801 24.676C163.891 24.827 164.107 23.1391 163.017 22.9881C156.808 22.0904 150.638 20.9691 144.511 19.6016C144.067 19.499 143.614 19.91 143.559 20.3376C142.869 26.2651 141.551 32.0093 139.561 37.6333C140.088 37.632 140.603 37.6293 141.129 37.6281C139.858 33.2566 138.853 28.8733 138.065 24.3922C137.871 23.3152 136.195 23.5466 136.376 24.6335L136.389 24.6237Z" fill="#060606" fill-opacity="0.8"/>
<path d="M151.637 27.7304C153.634 30.9825 155.629 34.2459 157.637 37.4994C158.216 38.4312 159.551 37.3784 158.983 36.4593C156.986 33.2072 154.99 29.9438 152.982 26.6903C152.404 25.7585 151.068 26.8113 151.637 27.7304Z" fill="#060606" fill-opacity="0.8"/>
<path d="M158.711 27.3206C155.009 29.7975 151.572 32.6171 148.423 35.771C147.662 36.5314 148.69 37.8867 149.463 37.1165C152.612 33.9625 156.049 31.1429 159.752 28.6661C160.665 28.051 159.612 26.7154 158.711 27.3206Z" fill="#060606" fill-opacity="0.8"/>
<path d="M168.203 33.4991C170.162 34.3674 172.24 34.6563 174.356 34.3896C175.437 34.2534 175.207 32.5656 174.115 32.7003C172.278 32.9341 170.551 32.6673 168.861 31.925C167.855 31.476 167.208 33.0515 168.203 33.4991Z" fill="#060606" fill-opacity="0.8"/>
<path d="M185.944 25.6137C186.76 25.8553 187.711 25.6569 188.49 25.9167C189.706 26.3354 189.248 27.592 188.62 28.3007C187.547 29.5358 185.903 30.046 184.896 31.3924C184.441 31.9976 184.952 32.8293 185.694 32.7527C187.457 32.5552 189.075 32.8766 190.655 33.6622C191.633 34.1533 192.292 32.5793 191.314 32.0881C189.465 31.1653 187.506 30.8345 185.452 31.0634C185.714 31.5201 185.977 31.9655 186.251 32.4236C187.687 30.4917 190.507 29.9948 190.92 27.3028C191.049 26.473 190.887 25.5945 190.281 24.9679C189.249 23.9208 187.861 24.3952 186.593 24.027C185.557 23.7228 184.887 25.2954 185.934 25.601L185.944 25.6137Z" fill="#060606" fill-opacity="0.8"/>
<path d="M181.064 36.7578C185.833 37.208 190.534 38.0042 195.191 39.1492C196.256 39.4112 196.46 37.7219 195.407 37.4613C190.75 36.3163 186.058 35.5328 181.28 35.0699C180.195 34.9654 179.968 36.6518 181.064 36.7578Z" fill="#060606" fill-opacity="0.8"/>
<path d="M186.536 41.8958C185.025 43.3378 183.515 44.7686 182.004 46.2107C181.483 46.7045 181.641 47.6167 182.416 47.7274L187.605 48.4715C188.693 48.6337 188.909 46.9458 187.821 46.7836L182.632 46.0395C182.773 46.5493 182.904 47.0464 183.044 47.5561C184.555 46.1141 186.065 44.6833 187.577 43.2412C188.358 42.4949 187.331 41.1397 186.536 41.8958Z" fill="#060606" fill-opacity="0.8"/>
<path d="M188.037 42.2365C187.559 45.7894 187.083 49.3311 186.605 52.8841C186.466 53.9756 188.142 54.1902 188.293 53.1001C188.771 49.5471 189.247 46.0054 189.725 42.4525C189.864 41.361 188.188 41.1464 188.037 42.2365Z" fill="#060606" fill-opacity="0.8"/>
<path d="M200.036 31.8549C201.928 34.4074 204.015 36.7789 206.291 39.0144C206.291 38.5684 206.292 38.1111 206.292 37.665C204.047 39.2076 201.892 40.8532 199.813 42.6229C198.98 43.3282 200.018 44.6849 200.853 43.9684C202.933 42.1987 205.088 40.5531 207.332 39.0105C207.834 38.663 207.7 38.0167 207.333 37.661C205.17 35.5313 203.198 33.2432 201.394 30.805C200.741 29.9208 199.396 30.9609 200.049 31.8451L200.036 31.8549Z" fill="#060606" fill-opacity="0.8"/>
<path d="M216.109 32.0021C216.515 31.871 217.188 31.6141 217.606 31.7476C218.079 31.6251 218.217 31.8831 218.013 32.4974C218.299 33.2088 218.032 33.5978 217.21 33.6756C216.409 34.0419 215.697 34.3282 215.029 34.906C214.81 35.0953 214.646 35.3945 214.71 35.7001C214.901 36.7081 215.537 37.0984 216.505 37.3137C217.393 37.5189 218.758 37.6707 218.273 38.9582C217.772 40.278 215.652 40.1324 214.526 40.0799C213.435 40.0316 213.219 41.7195 214.31 41.7678C216.528 41.8686 219.48 41.6746 220.029 38.9999C220.204 38.1646 220.051 37.2186 219.446 36.5808C219.063 36.1772 216.435 35.6235 216.4 35.4476C216.298 35.709 216.183 35.9802 216.081 36.2416C217.534 34.9865 221.419 34.3057 220.294 31.4741C219.533 29.5582 217.015 29.9335 215.465 30.4214C214.417 30.7448 215.097 32.3185 216.133 31.9937L216.109 32.0021Z" fill="#060606" fill-opacity="0.8"/>
</g>
<defs>
<clipPath id="clip0_455_613">
<rect width="218.539" height="29.4615" fill="white" transform="translate(4.60693 0.711914) rotate(7.29357)"/>
</clipPath>
</defs>
</svg>
