<svg width="107" height="99" viewBox="0 0 107 99" fill="none" xmlns="http://www.w3.org/2000/svg">
<g clip-path="url(#clip0_455_652)">
<path d="M61.3628 21.582L30.8346 41.4671C30.1523 41.9116 30.9273 42.8946 31.6096 42.4501L62.1378 22.565C62.8202 22.1206 62.0451 21.1375 61.3628 21.582Z" fill="white" fill-opacity="0.8"/>
<path d="M67.4082 30.8631L36.88 50.7482C36.1977 51.1927 36.9727 52.1757 37.655 51.7313L68.1833 31.8461C68.8656 31.4017 68.0906 30.4187 67.4082 30.8631Z" fill="white" fill-opacity="0.8"/>
<path d="M76.8035 45.287L46.2752 65.1721C45.5929 65.6166 46.3679 66.5996 47.0503 66.1552L77.5785 46.27C78.2608 45.8256 77.4858 44.8426 76.8035 45.287Z" fill="white" fill-opacity="0.8"/>
<path d="M82.849 54.5681L52.3208 74.4533C51.6385 74.8977 52.4135 75.8807 53.0958 75.4363L83.6241 55.5511C84.3064 55.1067 83.5313 54.1237 82.849 54.5681Z" fill="white" fill-opacity="0.8"/>
<path d="M37.4922 50.979L31.63 41.9791C31.1894 41.3028 30.1966 42.083 30.6372 42.7593L36.4994 51.7592C36.9399 52.4355 37.9327 51.6553 37.4922 50.979Z" fill="white" fill-opacity="0.8"/>
<path d="M52.8989 74.4104L47.1327 65.5578C46.6921 64.8815 45.6993 65.6617 46.1399 66.338L51.9061 75.1906C52.3467 75.8669 53.3395 75.0867 52.8989 74.4104Z" fill="white" fill-opacity="0.8"/>
<path d="M82.3006 36.5467C81.4917 32.4097 77.9065 29.1656 73.6307 29.0418C71.3747 28.9757 68.8709 29.6815 67.0841 31.0743C66.441 31.579 67.216 32.562 67.8591 32.0573C71.5659 29.1659 77.2882 29.9594 79.8668 33.8591C82.4499 37.7656 80.5675 43.3694 76.4026 45.5577C75.6878 45.9375 76.1636 47.0963 76.8852 46.7122C80.4612 44.8311 83.0825 40.539 82.2962 36.54L82.3006 36.5467Z" fill="white" fill-opacity="0.8"/>
<path d="M93.1985 45.6998C95.064 41.5472 95.0009 37.0485 93.4798 32.8223C90.5982 24.809 83.3511 17.9224 74.452 17.8058C69.814 17.7463 64.6802 18.6391 61.1693 21.6985C60.5548 22.2323 61.3231 23.2197 61.9443 22.6815C68.0082 17.3965 77.5652 17.6664 84.0767 22.2566C90.6192 26.8649 95.3962 36.1043 92.5068 44.0617C90.7841 48.8176 86.6843 51.8887 82.5641 54.6773C81.8905 55.1352 82.6655 56.1182 83.3391 55.6604C87.2904 52.9817 91.2268 50.1029 93.1942 45.6932L93.1985 45.6998Z" fill="white" fill-opacity="0.8"/>
<path d="M47.8104 43.6285L42.5327 35.5259C42.0921 34.8496 41.0993 35.6298 41.5399 36.3061L46.8176 44.4087C47.2582 45.085 48.251 44.3048 47.8104 43.6285Z" fill="white" fill-opacity="0.8"/>
<path d="M62.8836 67.9067L57.4183 59.5162C56.9778 58.8399 55.985 59.6201 56.4255 60.2964L61.8908 68.6869C62.3314 69.3632 63.3241 68.583 62.8836 67.9067Z" fill="white" fill-opacity="0.8"/>
<path d="M40.9333 44.4743C39.986 43.0789 39.043 41.6903 38.0956 40.295C37.9124 40.0137 37.4645 39.9908 37.2117 40.1936C36.9252 40.4184 36.9085 40.7916 37.1028 41.0752C38.0502 42.4705 38.9932 43.8591 39.9405 45.2545C40.1237 45.5357 40.5717 45.5587 40.8244 45.3559C41.111 45.1311 41.1277 44.7578 40.9333 44.4743Z" fill="white" fill-opacity="0.8"/>
<path d="M56.5558 68.7094C56.1676 68.1135 55.7929 67.5087 55.4047 66.9127C56.0112 66.47 56.6152 66.0384 57.2217 65.5957C57.8822 65.1178 57.1072 64.1347 56.4467 64.6126C55.8696 65.0267 55.3037 65.443 54.7267 65.857C54.3297 65.2476 53.942 64.6228 53.5451 64.0134C53.3619 63.7322 52.9072 63.7136 52.6611 63.912C52.3678 64.1412 52.3647 64.5057 52.5523 64.7936L53.7077 66.597C53.081 67.0529 52.4475 67.5132 51.8208 67.9692C51.1603 68.4471 51.9353 69.4301 52.5958 68.9522C53.1887 68.5183 53.7928 68.0867 54.3857 67.6527C54.7827 68.2621 55.1661 68.8803 55.5586 69.4829C55.7418 69.7642 56.1965 69.7828 56.4425 69.5844C56.7358 69.3552 56.739 68.9907 56.5514 68.7027L56.5558 68.7094Z" fill="white" fill-opacity="0.8"/>
<path d="M47.4067 65.5796C47.7279 64.0638 48.1062 62.6061 49.3197 61.5296C50.54 60.4486 52.0221 59.6072 53.3823 58.7116C56.1974 56.8589 59.03 55.0329 61.8475 53.1691C67.4443 49.4567 72.9523 45.5638 77.8202 40.9243C79.8085 39.0283 82.3859 36.205 80.7224 33.3114C80.3267 32.6154 79.1531 33.1032 79.5599 33.8015C81.1778 36.6104 77.7749 39.3038 75.9326 40.9807C73.4956 43.2071 70.9027 45.268 68.24 47.2217C62.971 51.0829 57.4138 54.5311 51.9723 58.1422C50.5556 59.0841 48.9436 59.9624 47.8248 61.273C46.8173 62.4442 46.4715 63.9666 46.1623 65.427C45.9967 66.2215 47.2435 66.3631 47.4135 65.5752L47.4067 65.5796Z" fill="white" fill-opacity="0.8"/>
<path d="M80.4825 18.8658C74.08 15.6542 66.5899 15.8692 60.1673 19.0227C56.3998 20.8758 52.9003 23.3174 49.4025 25.6434C45.7469 28.0818 42.1417 30.5827 38.5844 33.1573C36.657 34.5559 34.5588 35.8844 32.8769 37.5713C31.5504 38.9027 30.6588 40.5325 30.6732 42.4306C30.6791 43.2374 31.9331 43.0501 31.9247 42.2544C31.9071 40.4252 33.1627 38.9111 34.4863 37.7819C35.9497 36.5425 37.5492 35.453 39.1047 34.3253C42.4434 31.9027 45.8324 29.5426 49.2607 27.2427C52.5877 25.0089 55.9203 22.695 59.4542 20.7937C62.6059 19.1032 65.9457 17.9674 69.5256 17.791C73.1567 17.6195 76.7757 18.419 80.0036 20.0361C80.7276 20.3943 81.1886 19.2261 80.4714 18.8635L80.4825 18.8658Z" fill="white" fill-opacity="0.8"/>
<path d="M30.2188 35.2778C30.2621 34.9158 30.005 34.6541 29.6715 34.5852C27.3257 34.1008 24.9748 33.6674 22.6075 33.2828C22.2716 33.225 21.9441 33.5051 21.908 33.8338C21.8671 34.1847 22.117 34.4797 22.4553 34.5264C24.8159 34.9154 27.1736 35.3444 29.5194 35.8288C29.8529 35.8977 30.1852 35.5954 30.2188 35.2778Z" fill="white" fill-opacity="0.8"/>
<path d="M28.1145 39.5956C28.0568 39.2707 27.7553 38.9998 27.4109 39.062C25.9373 39.3256 24.5537 39.3876 23.0947 39.2601C22.7652 39.2268 22.4182 39.4624 22.3952 39.8111C22.3703 40.1421 22.5884 40.4769 22.9426 40.5037C24.4861 40.6428 26.0504 40.5776 27.5777 40.3077C27.9042 40.2476 28.1852 39.9405 28.1189 39.6023L28.1145 39.5956Z" fill="white" fill-opacity="0.8"/>
<path d="M33.5267 33.1328C33.7474 32.8364 33.65 32.4802 33.3969 32.2541C32.2217 31.1884 31.2055 29.9237 30.4297 28.5406C30.2667 28.2462 29.946 28.0641 29.6071 28.2085C29.3199 28.3288 29.0931 28.7341 29.2672 29.0308C30.1603 30.6236 31.2904 32.0334 32.6437 33.2692C32.8969 33.4954 33.3378 33.3894 33.5267 33.1328Z" fill="white" fill-opacity="0.8"/>
<path d="M64.9771 76.8816C65.1887 76.6008 65.114 76.2202 64.8473 76.0029C63.6065 74.999 62.2428 74.161 60.7939 73.5024C60.4883 73.3582 60.0973 73.5556 59.9747 73.8548C59.8449 74.1874 60.0161 74.5241 60.3218 74.6683C61.6686 75.2884 62.9172 76.0679 64.0898 77.0113C64.3521 77.222 64.7704 77.1403 64.9728 76.8749L64.9771 76.8816Z" fill="white" fill-opacity="0.8"/>
<path d="M60.4448 80.101C59.6422 78.8688 58.9724 77.5598 58.444 76.1872C58.3259 75.8731 57.9289 75.7216 57.6214 75.8551C57.2961 75.9907 57.1523 76.3609 57.2815 76.6774C57.8507 78.1569 58.5816 79.5597 59.452 80.8812C59.6352 81.1624 60.0831 81.1854 60.3359 80.9826C60.6224 80.7578 60.6323 80.3889 60.4448 80.101Z" fill="white" fill-opacity="0.8"/>
<path d="M54.3136 81.9296C54.3458 80.354 54.534 78.7818 54.8778 77.2416C54.9472 76.9198 54.6513 76.5689 54.3305 76.549C53.9651 76.5199 53.7052 76.756 53.631 77.1C53.2871 78.6402 53.0989 80.2125 53.0668 81.788C53.0597 82.1169 53.2532 82.4582 53.6141 82.4806C53.9282 82.5049 54.3129 82.283 54.3136 81.9296Z" fill="white" fill-opacity="0.8"/>
<path d="M34.2052 56.5535C34.6514 53.5161 32.4923 50.6592 29.7058 49.6607C29.5439 49.6041 29.4009 49.6209 29.2686 49.6689C27.3036 49.2226 25.1117 49.8015 23.6501 51.2209C21.8716 52.9516 21.4669 55.7426 22.4937 57.9541C23.6394 60.4219 26.572 61.7926 29.2501 61.5169C31.8277 61.2495 33.8318 59.038 34.1965 56.5401L34.2052 56.5535ZM29.8904 60.1366C27.8025 60.7717 25.0851 59.7759 23.9277 57.9547C22.925 56.3856 22.949 54.1477 24.0819 52.6372C25.4172 50.8614 27.9813 50.3072 29.9481 51.2292C30.0434 51.272 30.1256 51.2948 30.2082 51.2887C31.7628 52.1835 32.9304 53.7692 33.0036 55.6099C33.0756 57.5373 31.7746 59.5578 29.8928 60.1255L29.8904 60.1366Z" fill="white" fill-opacity="0.8"/>
<path d="M33.2442 67.7375C33.1779 66.0257 31.7048 64.5913 29.9729 64.6799C29.926 64.6818 29.8855 64.7082 29.8362 64.7212C28.9785 64.66 28.0982 64.9186 27.4408 65.4899C26.2094 66.5686 26.1024 68.3837 26.6319 69.8318C26.9472 70.6851 27.5799 71.3316 28.4454 71.6262C29.2354 71.8937 30.1043 71.9572 30.898 71.6691C32.4203 71.1258 33.3022 69.2447 33.2398 67.7308L33.2442 67.7375ZM27.9671 69.725C27.4716 68.8461 27.3892 67.4787 28.0548 66.6541C28.625 65.9489 29.8459 65.7259 30.6278 66.2466C30.8111 66.3657 31.0339 66.3827 31.229 66.3129C31.5948 66.6086 31.8783 67.0439 31.9541 67.5C32.1422 68.5125 31.6541 69.6983 30.8175 70.3195C30.0012 70.9275 28.4583 70.5973 27.9671 69.725Z" fill="white" fill-opacity="0.8"/>
<path d="M42.8032 69.5319C43.5514 68.7012 44.1494 67.625 44.2129 66.4964C44.2742 65.5123 43.9345 64.5032 43.2262 63.8296C43.1874 63.7404 43.1351 63.6601 43.0402 63.5883C41.5105 62.3625 39.4274 61.7642 37.5051 62.3582C35.6634 62.9284 34.1975 64.6367 34.1821 66.5924C34.1678 68.6236 35.5877 70.7888 37.5613 71.4109C39.5193 72.0239 41.4948 70.9946 42.7897 69.5407L42.8032 69.5319ZM38.2736 70.2888C36.7501 70.0031 35.6163 68.3954 35.4641 66.9209C35.3095 65.4575 36.3187 64.1706 37.6468 63.6393C39.0647 63.0686 40.6377 63.4747 41.8724 64.2918C41.9204 64.3655 41.9727 64.4458 42.0699 64.5065C43.4903 65.4315 42.9722 67.295 42.1014 68.4249C41.2238 69.5593 39.7749 70.5698 38.2736 70.2888Z" fill="white" fill-opacity="0.8"/>
<path d="M36.0447 79.4374C36.8265 77.9935 36.4653 76.1687 35.2679 75.0984C35.171 75.0089 35.042 74.988 34.9149 74.9849C34.0088 74.4211 32.8533 74.2868 31.8216 74.6822C30.422 75.2219 29.4798 76.6559 29.4692 78.1316C29.4628 79.7762 30.5286 81.4568 32.2937 81.5373C33.8183 81.603 35.3154 80.7994 36.0491 79.4441L36.0447 79.4374ZM32.8478 80.2608C32.3339 80.3286 31.7907 80.2627 31.4058 79.8935C31.0364 79.5332 30.8122 79.0117 30.7483 78.5001C30.6179 77.5169 31.0946 76.491 31.974 75.9945C32.8533 75.4981 34.0394 75.6792 34.6907 76.4281C34.7454 76.4974 34.8117 76.54 34.8848 76.5783C35.2154 77.145 35.3004 77.8812 35.0905 78.5043C34.762 79.4623 33.84 80.1296 32.8478 80.2608Z" fill="white" fill-opacity="0.8"/>
<path d="M22.8367 68.422C24.2837 66.1824 23.7704 63.1787 21.8155 61.4478C20.2854 59.793 17.8628 59.0724 15.6913 59.9338C13.2571 60.9089 12.0635 63.508 12.5821 66.0029C13.024 68.0994 14.5657 70.0231 16.648 70.6792C18.9256 71.3988 21.5313 70.4359 22.8324 68.4153L22.8367 68.422ZM17.5446 69.6183C13.9858 68.9703 12.1429 63.5708 15.5063 61.4372C17.4785 60.1812 19.9625 60.9666 21.261 62.7531C21.3264 62.8536 21.4193 62.9075 21.5145 62.9504C22.4538 64.1412 22.7142 65.8409 22.0758 67.2391C21.3128 68.9187 19.3595 69.9526 17.549 69.625L17.5446 69.6183Z" fill="white" fill-opacity="0.8"/>
<path d="M20.3375 54.5994C20.7308 53.1796 20.1332 51.5088 18.8332 50.8868C18.7983 50.8332 18.7499 50.7884 18.6837 50.7458C17.3537 49.8857 15.5587 49.8628 14.2401 50.8075C12.9418 51.739 12.3606 53.491 12.8492 54.9944C13.3592 56.5602 14.9261 57.5329 16.5488 57.4391C18.1827 57.3477 19.8807 56.2321 20.3307 54.6038L20.3375 54.5994ZM16.7999 56.1406C15.7088 56.3268 14.6231 55.8418 14.152 54.823C13.7196 53.8933 13.9773 52.7527 14.7127 52.0352C15.3574 51.415 16.3127 51.2124 17.1616 51.4224C17.2316 51.6629 17.4316 51.8665 17.6901 51.8793C18.7933 51.9333 19.339 53.037 19.1816 54.0361C18.9954 55.1684 17.8799 55.9522 16.8067 56.1362L16.7999 56.1406Z" fill="white" fill-opacity="0.8"/>
</g>
<defs>
<clipPath id="clip0_455_652">
<rect width="87" height="61" fill="white" transform="translate(0 47.4841) rotate(-33.0789)"/>
</clipPath>
</defs>
</svg>
