<svg width="168" height="86" viewBox="0 0 168 86" fill="none" xmlns="http://www.w3.org/2000/svg">
<g clip-path="url(#clip0_455_501)">
<path d="M17.7829 33.901L25.8979 76.3879C26.0852 77.3686 27.6189 77.0757 27.4316 76.095L19.3167 33.608C19.1294 32.6274 17.5956 32.9203 17.7829 33.901Z" fill="white" fill-opacity="0.8"/>
<path d="M8.87472 72.4456C51.0484 63.0826 93.7714 55.8051 136.241 47.9063C144.461 46.3756 152.68 44.8374 160.908 43.3918C161.9 43.2181 161.61 41.6977 160.618 41.8714C118.043 49.3413 75.5744 57.6181 33.162 65.9394C24.9639 67.5446 16.7432 69.1148 8.58433 70.9252C7.60857 71.1431 7.89129 72.665 8.87472 72.4456Z" fill="white" fill-opacity="0.8"/>
<path d="M10.0322 55.8673C14.3411 55.4146 18.4109 53.9597 21.8717 51.3131C25.9926 48.1702 28.6036 40.0759 34.4815 40.5133C41.5034 41.0317 43.4723 48.9682 45.3509 54.3927C47.1789 59.6772 48.5543 65.5051 51.2893 70.4194C54.5504 76.2575 61.3917 78.9929 66.5034 73.2969C69.3869 70.083 69.8281 65.61 70.1828 61.516C70.7075 55.4827 70.5458 49.5175 70.4079 43.469C70.284 37.993 72.9512 28.6115 80.5004 31.7238C84.0121 33.1726 86.1155 36.9863 88.7388 39.5266C93.129 43.7859 99.0019 43.8225 102.724 38.51C105.398 34.6979 105.269 29.7351 107.792 25.881C109.823 22.7826 114.34 20.2573 117.557 23.5351C119.717 25.7306 120.63 29.8031 121.717 32.5817C123.829 37.9775 125.784 43.4269 127.709 48.8897C129.061 52.7208 130.545 56.7472 134.328 58.822C153.768 69.512 149.933 14.31 149.166 6.46698C149.072 5.47636 147.533 5.77836 147.633 6.75991C148.797 18.6005 148.721 30.5205 147.292 42.3445C146.736 46.9655 146.524 53.2226 142.843 56.6754C139.735 59.5856 135.276 58.4596 132.67 55.514C130.54 53.1001 129.67 49.7916 128.644 46.8358C126.892 41.8206 125.057 36.8367 123.128 31.8947C121.747 28.3685 120.611 22.9598 116.868 21.0509C109.745 17.4238 105.444 26.6131 103.934 31.6525C102.563 36.2481 99.3415 43.1036 93.2623 40.8215C89.7264 39.4955 87.6018 35.6544 85.0274 33.1205C81.0333 29.1874 75.3473 28.2563 71.4465 33.0513C68.7813 36.3259 68.7591 40.5377 68.9106 44.535C69.1187 50.1604 69.1249 55.7692 68.6397 61.3852C68.1774 66.7053 66.5967 75.8241 59.0687 74.9454C53.2959 74.2673 51.3304 66.8895 49.767 62.3661C47.7992 56.6828 46.3709 50.2031 43.3147 44.9799C41.4496 41.7905 38.4697 39.2552 34.623 38.9656C30.6157 38.6673 28.2137 41.0723 26.1508 44.1294C22.1915 49.9914 16.9331 53.588 9.75713 54.344C8.75958 54.4479 9.04997 55.9682 10.0475 55.8644L10.0322 55.8673Z" fill="white" fill-opacity="0.8"/>
<path d="M69.7512 51.0166C72.2437 53.6213 74.9032 56.0602 77.7006 58.3467C78.4731 58.9791 79.3482 57.6932 78.5771 57.0683C75.883 54.8645 73.3358 52.5145 70.9326 50.0031C70.2467 49.2831 69.0575 50.2981 69.7526 51.0242L69.7512 51.0166Z" fill="white" fill-opacity="0.8"/>
<path d="M69.6325 44.7359C74.5595 48.6012 79.3315 52.6536 83.9346 56.9038C84.6593 57.577 85.8485 56.5619 85.1147 55.8826C80.416 51.5483 75.547 47.404 70.5167 43.4561C69.7303 42.8341 68.8552 44.1201 69.6402 44.7344L69.6325 44.7359Z" fill="white" fill-opacity="0.8"/>
<path d="M69.7011 38.5613C77.2403 44.1181 84.5857 49.9088 91.7403 55.9488C92.5066 56.5903 93.374 55.3058 92.6168 54.6704C85.4622 48.6304 78.1168 42.8397 70.5776 37.2829C69.7725 36.6882 68.8974 37.9741 69.7011 38.5613Z" fill="white" fill-opacity="0.8"/>
<path d="M73.2387 33.3629C82.2011 39.8376 90.5836 46.7304 98.6672 54.2633C99.3919 54.9364 100.573 53.9229 99.8472 53.2421C91.6666 45.6174 83.2039 38.6376 74.1229 32.0831C73.3116 31.4974 72.4351 32.7758 73.2464 33.3615L73.2387 33.3629Z" fill="white" fill-opacity="0.8"/>
<path d="M92.284 42.0248C96.529 45.5239 100.774 49.023 105.019 52.5222C105.792 53.1547 106.667 51.8687 105.896 51.2438C101.651 47.7447 97.4056 44.2455 93.1605 40.7464C92.388 40.1139 91.5129 41.3999 92.284 42.0248Z" fill="white" fill-opacity="0.8"/>
<path d="M100.555 40.5082C104.453 44.1051 108.342 47.6958 112.24 51.2928C112.965 51.9659 114.154 50.9509 113.42 50.2716C109.522 46.6747 105.633 43.0839 101.735 39.487C101.01 38.8138 99.8208 39.8289 100.555 40.5082Z" fill="white" fill-opacity="0.8"/>
<path d="M103.59 35.1378C109.371 40.1007 115.159 45.0622 120.94 50.0251C121.7 50.6757 122.567 49.3912 121.816 48.7467C116.036 43.7838 110.247 38.8223 104.467 33.8594C103.707 33.2088 102.839 34.4933 103.59 35.1378Z" fill="white" fill-opacity="0.8"/>
<path d="M105.941 28.0939C112.908 34.6503 119.883 41.2052 126.85 47.7616C127.568 48.4438 128.758 47.4288 128.03 46.7404C121.063 40.184 114.088 33.6291 107.121 27.0727C106.403 26.3905 105.213 27.4056 105.941 28.0939Z" fill="white" fill-opacity="0.8"/>
<path d="M109.054 23.8749C113.668 28.1859 118.407 32.3551 123.257 36.4005C124.024 37.042 124.899 35.7561 124.134 35.1221C119.379 31.1609 114.744 27.0744 110.228 22.8628C109.503 22.1897 108.32 23.1957 109.048 23.884L109.054 23.8749Z" fill="white" fill-opacity="0.8"/>
<path d="M37.0725 37.5995C35.9344 37.9666 35.1084 39.0935 35.3729 40.3116C35.6184 41.4308 36.8153 42.0374 37.9007 41.7276C39.0014 41.415 39.7041 40.225 39.0521 39.1834C38.4828 38.2836 37.0196 37.8224 36.2191 38.708C35.9373 39.0219 35.8379 39.4585 36.142 39.8022C36.3947 40.0849 36.963 40.1891 37.2448 39.8752C37.2975 39.8179 37.4436 39.7506 37.3377 39.7787C37.261 39.7934 37.4187 39.7869 37.3837 39.7699C37.507 39.833 37.6399 39.8628 37.6942 39.9391C37.7696 40.0429 37.762 40.0443 37.6969 40.1198C37.6644 40.1575 37.5259 40.2234 37.4171 40.2363C37.1856 40.2726 36.9228 40.2283 36.8757 39.8985C36.8373 39.6143 37.0667 39.1922 37.3523 39.1062C37.7562 38.9739 38.0596 38.648 37.9739 38.1995C37.9028 37.827 37.4658 37.4535 37.0619 37.5858L37.0725 37.5995Z" fill="white" fill-opacity="0.8"/>
<path d="M42.682 26.8525C41.5974 28.9979 40.9797 31.2984 40.8157 33.6856C40.7441 34.6842 42.3011 34.8044 42.3727 33.8059C42.5278 31.5385 43.1286 29.3988 44.1538 27.3593C44.6039 26.4696 43.1243 25.9643 42.6805 26.8449L42.682 26.8525Z" fill="white" fill-opacity="0.8"/>
<path d="M42.6724 27.9259C44.101 29.4967 45.1279 31.2941 45.7069 33.3266C45.9756 34.2759 47.5108 33.9906 47.2406 33.0337C46.5863 30.7318 45.4627 28.6773 43.8524 26.9047C43.1789 26.1666 41.9974 27.1802 42.6724 27.9259Z" fill="white" fill-opacity="0.8"/>
<path d="M42.3937 32.9588C43.4596 32.4637 44.5537 32.1995 45.7253 32.1333C46.7239 32.0766 46.4259 30.5576 45.435 30.613C44.13 30.6889 42.8898 31.0203 41.707 31.5692C40.7949 31.9956 41.4816 33.3851 42.3937 32.9588Z" fill="white" fill-opacity="0.8"/>
<path d="M121.181 15.9171C121.372 18.2051 122.029 20.3567 123.122 22.3776C123.599 23.2479 125.003 22.57 124.525 21.6921C123.486 19.7868 122.897 17.7876 122.716 15.6318C122.63 14.6397 121.098 14.9403 121.182 15.9247L121.181 15.9171Z" fill="white" fill-opacity="0.8"/>
<path d="M121.646 16.0647C122.122 15.9738 122.605 15.8816 123.091 15.9305C124.003 16.0007 124.912 17.3477 123.435 17.6061C123.598 18.0871 123.763 18.5756 123.927 19.0566C124.788 18.6557 126.142 19.1692 125.964 20.2749C125.828 21.1045 125.047 21.553 124.248 21.4457C123.253 21.3127 123.127 22.8575 124.122 22.9904C125.924 23.2293 127.744 21.7313 127.554 19.8609C127.345 17.8127 124.993 16.8594 123.242 17.6746C122.439 18.0486 122.873 19.2815 123.733 19.1251C125.256 18.8579 126.331 17.2028 125.597 15.7355C124.815 14.1752 122.831 14.2783 121.356 14.5443C120.364 14.718 120.654 16.2384 121.646 16.0647Z" fill="white" fill-opacity="0.8"/>
<path d="M154.47 50.6728C152.304 49.818 149.852 51.9644 150.201 54.2064C150.598 56.6993 153.594 57.6556 155.723 56.7762C156.652 56.394 155.965 55.0044 155.036 55.3866C153.916 55.8449 152.132 55.4529 151.784 54.1325C151.463 52.949 152.784 51.6646 153.953 52.1267C154.889 52.4916 155.405 51.03 154.476 50.6637L154.47 50.6728Z" fill="white" fill-opacity="0.8"/>
<path d="M152.375 2.0012C152.503 3.96228 152.777 5.89554 153.206 7.8071C153.422 8.77428 154.957 8.48895 154.739 7.51416C154.317 5.59354 154.035 3.66175 153.909 1.70827C153.847 0.719394 152.315 1.01993 152.375 2.0012Z" fill="white" fill-opacity="0.8"/>
<path d="M153.081 2.41001C154.148 1.9225 155.594 2.29247 156.144 3.38498C156.752 4.60846 155.876 6.13889 154.614 6.48232C153.654 6.74435 153.939 8.2738 154.904 8.0027C157.018 7.41775 158.516 5.10668 157.663 2.96895C156.852 0.933249 154.338 0.129149 152.394 1.02048C151.481 1.43922 152.167 2.82876 153.081 2.41001Z" fill="white" fill-opacity="0.8"/>
</g>
<defs>
<clipPath id="clip0_455_501">
<rect width="160" height="57" fill="white" transform="translate(0 30.0171) rotate(-10.8131)"/>
</clipPath>
</defs>
</svg>
