<svg width="361" height="187" viewBox="0 0 361 187" fill="none" xmlns="http://www.w3.org/2000/svg">
<rect x="0.177124" y="48.8601" width="187" height="39" rx="19.5" transform="rotate(-10.2015 0.177124 48.8601)" fill="#64ADF4"/>
<path d="M19.3472 73.8601L16.8577 60.0264L18.7316 59.6891L25.5836 68.0437L29.1207 57.8196L30.9946 57.4823L33.4841 71.3161L31.4999 71.6732L29.4568 60.3196L30.0355 60.2154L26.5789 70.2543L25.449 70.4577L18.6769 62.231L19.2832 62.1219L21.3313 73.5031L19.3472 73.8601ZM43.3075 69.8044C42.0766 70.0259 40.9506 69.9346 39.9295 69.5303C38.9052 69.1078 38.0399 68.41 37.3337 67.437C36.646 66.4607 36.1682 65.2285 35.9004 63.7404C35.6293 62.2339 35.6459 60.9033 35.9502 59.7485C36.2728 58.5904 36.8422 57.6439 37.6583 56.9091C38.4744 56.1743 39.4979 55.6961 40.7288 55.4746C41.978 55.2498 43.1106 55.3779 44.1265 55.8589C45.1575 56.3182 45.9175 57.0634 46.4065 58.0944L46.0758 58.1539L45.7888 54.82L47.9383 54.4332C47.9791 54.9759 48.0215 55.5278 48.0655 56.0889C48.1247 56.6283 48.2005 57.1552 48.2931 57.6696L50.2073 68.3067L47.9751 68.7084L47.39 65.4566L47.6931 65.4021C47.5942 66.5389 47.1417 67.5023 46.3355 68.2922C45.5293 69.0821 44.52 69.5862 43.3075 69.8044ZM43.4211 67.9063C44.7438 67.6682 45.71 67.0297 46.3196 65.9906C46.9259 64.9332 47.0721 63.5318 46.758 61.7865C46.4406 60.0229 45.8151 58.7604 44.8815 57.999C43.9446 57.2193 42.8148 56.9484 41.492 57.1865C40.1876 57.4212 39.2231 58.0689 38.5984 59.1297C37.9888 60.1687 37.8427 61.5701 38.1601 63.3338C38.4742 65.0791 39.0997 66.3416 40.0366 67.1213C40.9885 67.8794 42.1167 68.141 43.4211 67.9063ZM57.6575 66.966L55.4903 54.9234L50.4749 55.826L50.1526 54.0348L62.4431 51.823L62.7655 53.6142L57.7225 54.5218L59.8896 66.5643L57.6575 66.966ZM73.4959 64.3718C71.3281 64.762 69.5071 64.4448 68.033 63.4203C66.5556 62.3775 65.6153 60.7354 65.2119 58.4941C64.9508 57.0427 64.9999 55.7347 65.3593 54.57C65.7154 53.3869 66.3365 52.4121 67.2228 51.6457C68.1058 50.8609 69.1903 50.3528 70.4763 50.1214C71.7439 49.8933 72.8574 49.9679 73.8167 50.3453C74.7761 50.7227 75.5746 51.3661 76.2125 52.2755C76.847 53.1665 77.2849 54.2826 77.5262 55.6237L77.675 56.4505L66.9552 58.3795L66.7023 56.9741L75.9616 55.3079L75.5576 55.7504C75.2931 54.2807 74.7558 53.192 73.9456 52.4843C73.1355 51.7766 72.0782 51.5401 70.7738 51.7748C69.3959 52.0228 68.4088 52.703 67.8124 53.8156C67.2127 54.9097 67.06 56.2744 67.3543 57.9094L67.3989 58.1575C67.7097 59.8844 68.3686 61.1219 69.3757 61.87C70.3978 62.5965 71.6805 62.8209 73.2237 62.5431C74.0504 62.3944 74.8006 62.1361 75.4741 61.7683C76.1626 61.3789 76.7864 60.8399 77.3453 60.1514L78.3995 61.5833C77.8991 62.2803 77.2101 62.8784 76.3327 63.3777C75.4703 63.8553 74.5247 64.1867 73.4959 64.3718ZM82.4546 62.5036L79.9651 48.6699L81.839 48.3326L88.691 56.6872L92.2281 46.4631L94.102 46.1258L96.5915 59.9596L94.6074 60.3167L92.5642 48.9631L93.1429 48.8589L89.6863 58.8978L88.5564 59.1012L81.7843 50.8745L82.3906 50.7654L84.4387 62.1466L82.4546 62.5036ZM106.415 58.4479C105.184 58.6694 104.058 58.5781 103.037 58.1739C102.013 57.7513 101.147 57.0535 100.441 56.0805C99.7534 55.1042 99.2756 53.872 99.0078 52.3839C98.7367 50.8775 98.7533 49.5468 99.0576 48.392C99.3802 47.2339 99.9496 46.2874 100.766 45.5526C101.582 44.8178 102.605 44.3396 103.836 44.1181C105.085 43.8933 106.218 44.0214 107.234 44.5024C108.265 44.9617 109.025 45.7069 109.514 46.7379L109.183 46.7974L108.896 43.4636L111.046 43.0767C111.086 43.6194 111.129 44.1713 111.173 44.7324C111.232 45.2718 111.308 45.7987 111.4 46.3131L113.315 56.9502L111.083 57.3519L110.497 54.1001L110.801 54.0456C110.702 55.1824 110.249 56.1458 109.443 56.9357C108.637 57.7256 107.627 58.2297 106.415 58.4479ZM106.528 56.5498C107.851 56.3117 108.817 55.6732 109.427 54.6341C110.033 53.5767 110.179 52.1753 109.865 50.43C109.548 48.6664 108.923 47.4039 107.989 46.6425C107.052 45.8628 105.922 45.5919 104.599 45.83C103.295 46.0647 102.331 46.7124 101.706 47.7732C101.096 48.8122 100.95 50.2136 101.267 51.9773C101.582 53.7226 102.207 54.9851 103.144 55.7648C104.096 56.5229 105.224 56.7845 106.528 56.5498ZM120.765 55.6095L118.598 43.567L113.582 44.4695L113.26 42.6783L125.551 40.4665L125.873 42.2578L120.83 43.1653L122.997 55.2078L120.765 55.6095ZM130.357 53.8834L127.868 40.0496L129.907 39.6826L132.024 51.4496L131.28 51.5835L137.981 38.2296L139.855 37.8924L142.344 51.7262L140.333 52.0882L138.21 40.2936L138.954 40.1597L132.258 53.5412L130.357 53.8834ZM146.746 50.9341L144.257 37.1003L146.489 36.6986L147.535 42.5132L150.153 42.0421L153.681 35.4043L156.134 34.9629L152.103 42.6016L151.373 42.0217C151.915 41.981 152.398 42.0269 152.82 42.1596C153.242 42.2922 153.664 42.5293 154.086 42.8706C154.526 43.2087 155.022 43.6979 155.573 44.3384L159.312 48.6727L156.915 49.1042L153.606 45.2615C153.198 44.7849 152.822 44.4353 152.478 44.2126C152.153 43.9866 151.797 43.8516 151.41 43.8074C151.041 43.76 150.59 43.7843 150.057 43.8801L147.853 44.2769L148.978 50.5324L146.746 50.9341ZM166.993 47.5466C165.762 47.7682 164.636 47.6768 163.615 47.2726C162.59 46.85 161.725 46.1522 161.019 45.1792C160.331 44.2029 159.853 42.9708 159.586 41.4827C159.314 39.9762 159.331 38.6455 159.635 37.4907C159.958 36.3326 160.527 35.3861 161.343 34.6513C162.159 33.9165 163.183 33.4383 164.414 33.2168C165.663 32.992 166.796 33.1201 167.812 33.6011C168.843 34.0605 169.603 34.8056 170.092 35.8367L169.761 35.8962L169.474 32.5623L171.623 32.1755C171.664 32.7182 171.707 33.2701 171.751 33.8311C171.81 34.3705 171.886 34.8974 171.978 35.4118L173.892 46.0489L171.66 46.4506L171.075 43.1989L171.378 43.1443C171.279 44.2811 170.827 45.2445 170.021 46.0344C169.214 46.8244 168.205 47.3285 166.993 47.5466ZM167.106 45.6485C168.429 45.4105 169.395 44.7719 170.005 43.7329C170.611 42.6754 170.757 41.2741 170.443 39.5288C170.126 37.7651 169.5 36.5026 168.567 35.7412C167.63 34.9615 166.5 34.6907 165.177 34.9287C163.873 35.1634 162.908 35.8112 162.284 36.8719C161.674 37.911 161.528 39.3123 161.845 41.076C162.159 42.8213 162.785 44.0838 163.722 44.8635C164.674 45.6216 165.802 45.8832 167.106 45.6485Z" fill="white"/>
<rect x="219.415" y="24.6763" width="135.063" height="39" rx="19.5" transform="rotate(6.73491 219.415 24.6763)" fill="#F2594B"/>
<path d="M240.579 61.6489L241.656 52.5283L241.934 52.5611C241.511 53.6013 240.921 54.3775 240.165 54.8897C239.43 55.3856 238.543 55.5722 237.505 55.4496C236.504 55.3314 235.658 54.9308 234.968 54.2479C234.297 53.5671 233.811 52.6639 233.512 51.5384C233.215 50.3943 233.153 49.09 233.326 47.6255C233.501 46.1425 233.856 44.8874 234.391 43.8604C234.946 42.817 235.629 42.0518 236.438 41.5647C237.268 41.0612 238.193 40.8697 239.212 40.9901C240.251 41.1127 241.068 41.51 241.666 42.182C242.284 42.8377 242.679 43.7114 242.85 44.803L242.572 44.7702L243.705 35.1769L245.958 35.4429L244.825 45.0362L244.519 45.0001C244.94 43.9784 245.528 43.2208 246.281 42.7271C247.056 42.2171 247.944 42.0212 248.945 42.1394C249.964 42.2598 250.81 42.6604 251.481 43.3412C252.174 44.0056 252.659 44.9088 252.938 46.0507C253.237 47.1762 253.299 48.4805 253.124 49.9635C252.951 51.428 252.587 52.6819 252.031 53.7253C251.497 54.7524 250.814 55.5176 249.984 56.0211C249.172 56.5267 248.257 56.7193 247.237 56.5989C246.236 56.4807 245.427 56.0938 244.809 55.4381C244.193 54.7639 243.791 53.8706 243.603 52.7582L243.908 52.7943L242.831 61.9149L240.579 61.6489ZM238.216 53.7291C239.235 53.8495 240.087 53.4802 240.771 52.6212C241.474 51.7643 241.93 50.4461 242.14 48.6664C242.348 46.9054 242.21 45.5263 241.727 44.5294C241.264 43.5161 240.522 42.9492 239.503 42.8288C238.483 42.7084 237.621 43.0859 236.916 43.9613C236.232 44.8203 235.786 46.1304 235.578 47.8915C235.368 49.6711 235.495 51.0583 235.961 52.0531C236.444 53.05 237.196 53.6087 238.216 53.7291ZM246.947 54.7602C247.966 54.8806 248.828 54.5124 249.53 53.6555C250.233 52.7987 250.689 51.4805 250.9 49.7008C251.107 47.9397 250.96 46.5596 250.458 45.5605C249.976 44.545 249.235 43.9781 248.234 43.8599C247.215 43.7395 246.352 44.117 245.647 44.9924C244.963 45.8514 244.517 47.1615 244.309 48.9226C244.099 50.7022 244.227 52.0894 244.692 53.0842C245.176 54.0811 245.927 54.6398 246.947 54.7602ZM256.009 57.381L257.657 43.422L259.715 43.665L258.313 55.5385L257.562 55.4498L267.862 44.6271L269.753 44.8504L268.105 58.8094L266.075 58.5697L267.48 46.6684L268.231 46.7571L257.927 57.6076L256.009 57.381ZM277.133 60.1293C275.946 59.9892 274.843 59.6992 273.824 59.2592C272.825 58.803 272.026 58.2481 271.426 57.5946L272.392 56.1016C273.012 56.7387 273.731 57.2559 274.549 57.6532C275.388 58.0342 276.317 58.2849 277.336 58.4053C278.708 58.5673 279.725 58.4712 280.387 58.1171C281.049 57.7629 281.426 57.1966 281.518 56.418C281.608 55.6579 281.416 55.0526 280.943 54.602C280.472 54.1329 279.736 53.8392 278.735 53.721L275.454 53.3335L275.651 51.6651L278.654 52.0198C279.544 52.1248 280.262 52.0123 280.809 51.6821C281.376 51.3356 281.701 50.8101 281.784 50.1056C281.87 49.3827 281.658 48.7844 281.15 48.3109C280.645 47.8189 279.798 47.5028 278.612 47.3627C277.667 47.251 276.771 47.2768 275.924 47.44C275.099 47.5869 274.293 47.8864 273.506 48.3387L272.936 46.7206C273.766 46.2172 274.698 45.8855 275.732 45.7257C276.766 45.5658 277.867 45.5548 279.035 45.6927C280.777 45.8985 282.062 46.398 282.89 47.1912C283.719 47.9658 284.061 48.9741 283.914 50.2162C283.811 51.0875 283.426 51.8032 282.758 52.3634C282.093 52.9051 281.262 53.1736 280.267 53.1688L280.306 52.8351C281.414 53.0035 282.273 53.4434 282.885 54.1547C283.496 54.866 283.742 55.7314 283.622 56.751C283.475 57.993 282.848 58.9246 281.741 59.5457C280.652 60.169 279.116 60.3635 277.133 60.1293ZM286.667 61.0014L288.315 47.0424L290.373 47.2854L288.971 59.1589L288.22 59.0703L298.52 48.2476L300.411 48.4709L298.763 62.4299L296.733 62.1902L298.138 50.2889L298.889 50.3775L288.586 61.228L286.667 61.0014ZM303.204 62.9544L304.853 48.9954L307.105 49.2613L306.412 55.1286L309.054 55.4405L314.363 50.1184L316.837 50.4106L310.756 56.5438L310.227 55.7764C310.758 55.8955 311.206 56.08 311.571 56.3299C311.936 56.5797 312.271 56.9294 312.575 57.3788C312.897 57.8304 313.229 58.4429 313.57 59.2162L315.884 64.4517L313.465 64.1661L311.419 59.5261C311.167 58.9513 310.91 58.5073 310.646 58.1942C310.401 57.8833 310.099 57.6504 309.742 57.4954C309.403 57.3425 308.964 57.2344 308.427 57.1709L306.202 56.9082L305.457 63.2203L303.204 62.9544ZM323.559 65.6119C322.317 65.4652 321.267 65.0498 320.408 64.3657C319.551 63.663 318.927 62.7434 318.534 61.6069C318.161 60.4726 318.063 59.1547 318.24 57.6531C318.42 56.133 318.823 54.8649 319.451 53.8488C320.097 52.8349 320.917 52.0954 321.912 51.6302C322.907 51.1649 324.025 51.0057 325.267 51.1523C326.528 51.3012 327.574 51.7537 328.405 52.5098C329.258 53.2495 329.768 54.1838 329.935 55.3125L329.602 55.2731L330.298 52.0002L332.467 52.2564C332.348 52.7874 332.228 53.3277 332.107 53.8773C332.006 54.4105 331.925 54.9366 331.864 55.4557L330.596 66.1891L328.344 65.9231L328.731 62.6419L329.037 62.6781C328.612 63.7368 327.898 64.5265 326.897 65.0474C325.895 65.5682 324.783 65.7564 323.559 65.6119ZM324.221 63.8292C325.556 63.9868 326.666 63.6574 327.552 62.841C328.44 62.006 328.988 60.708 329.196 58.9469C329.406 57.1673 329.176 55.7773 328.504 54.777C327.835 53.7582 326.833 53.1699 325.498 53.0123C324.182 52.8569 323.071 53.1956 322.164 54.0283C321.278 54.8447 320.73 56.1428 320.52 57.9224C320.312 59.6835 320.543 61.0735 321.212 62.0923C321.902 63.0948 322.905 63.6737 324.221 63.8292Z" fill="white"/>
<rect x="103.312" y="85.9583" width="214.931" height="39" rx="19.5" transform="rotate(6.73491 103.312 85.9583)" fill="#5273BF"/>
<path d="M114.77 115.695L116.418 101.736L118.476 101.979L117.074 113.852L116.323 113.764L126.623 102.941L128.514 103.164L126.866 117.123L124.836 116.884L126.241 104.982L126.992 105.071L116.688 115.921L114.77 115.695ZM131.307 117.648L132.956 103.689L135.208 103.955L134.518 109.794L142.193 110.701L142.883 104.861L145.135 105.127L143.487 119.086L141.234 118.82L141.98 112.508L134.305 111.602L133.56 117.914L131.307 117.648ZM155.225 126.562L156.302 117.442L156.58 117.475C156.157 118.515 155.567 119.291 154.811 119.803C154.076 120.299 153.189 120.486 152.151 120.363C151.15 120.245 150.304 119.844 149.614 119.161C148.943 118.48 148.458 117.577 148.158 116.452C147.861 115.308 147.799 114.003 147.972 112.539C148.147 111.056 148.502 109.801 149.037 108.774C149.592 107.73 150.275 106.965 151.084 106.478C151.914 105.975 152.839 105.783 153.859 105.903C154.897 106.026 155.714 106.423 156.312 107.095C156.93 107.751 157.325 108.625 157.496 109.716L157.218 109.684L158.351 100.09L160.604 100.356L159.471 109.95L159.165 109.913C159.586 108.892 160.174 108.134 160.928 107.641C161.702 107.13 162.59 106.935 163.591 107.053C164.61 107.173 165.456 107.574 166.127 108.255C166.82 108.919 167.305 109.822 167.584 110.964C167.883 112.09 167.945 113.394 167.77 114.877C167.597 116.341 167.233 117.595 166.677 118.639C166.143 119.666 165.46 120.431 164.63 120.934C163.819 121.44 162.903 121.633 161.883 121.512C160.882 121.394 160.073 121.007 159.455 120.351C158.839 119.677 158.437 118.784 158.249 117.672L158.555 117.708L157.478 126.828L155.225 126.562ZM152.862 118.642C153.881 118.763 154.733 118.394 155.417 117.535C156.12 116.678 156.576 115.359 156.786 113.58C156.994 111.819 156.857 110.44 156.373 109.443C155.91 108.429 155.168 107.863 154.149 107.742C153.129 107.622 152.267 107.999 151.562 108.875C150.878 109.734 150.432 111.044 150.224 112.805C150.014 114.585 150.141 115.972 150.607 116.966C151.09 117.963 151.842 118.522 152.862 118.642ZM161.593 119.674C162.613 119.794 163.474 119.426 164.176 118.569C164.879 117.712 165.335 116.394 165.546 114.614C165.754 112.853 165.606 111.473 165.104 110.474C164.623 109.458 163.881 108.892 162.88 108.773C161.861 108.653 160.998 109.03 160.294 109.906C159.609 110.765 159.163 112.075 158.955 113.836C158.745 115.616 158.873 117.003 159.338 117.998C159.822 118.995 160.573 119.553 161.593 119.674ZM176.465 123.234C175.13 123.077 173.996 122.651 173.063 121.958C172.15 121.249 171.489 120.325 171.078 119.187C170.67 118.029 170.553 116.709 170.728 115.226C170.906 113.725 171.327 112.468 171.991 111.456C172.656 110.445 173.513 109.709 174.564 109.251C175.635 108.776 176.838 108.617 178.172 108.775C179.526 108.935 180.658 109.369 181.571 110.078C182.504 110.771 183.176 111.687 183.587 112.826C184.016 113.967 184.142 115.288 183.964 116.789C183.789 118.272 183.359 119.528 182.674 120.556C182.009 121.568 181.141 122.311 180.07 122.786C179.02 123.245 177.818 123.394 176.465 123.234ZM176.681 121.399C178.016 121.557 179.126 121.227 180.012 120.411C180.9 119.576 181.448 118.278 181.656 116.517C181.867 114.737 181.627 113.346 180.937 112.344C180.268 111.325 179.275 110.738 177.959 110.582C176.643 110.427 175.541 110.766 174.652 111.601C173.767 112.418 173.219 113.716 173.008 115.496C172.8 117.257 173.031 118.647 173.7 119.665C174.372 120.666 175.365 121.244 176.681 121.399ZM186.214 130.222L188.191 113.482C188.252 112.963 188.287 112.431 188.295 111.887C188.323 111.327 188.341 110.774 188.349 110.23L190.518 110.486L190.433 113.832L190.1 113.792C190.525 112.733 191.23 111.943 192.213 111.42C193.198 110.878 194.32 110.682 195.581 110.831C196.841 110.979 197.892 111.395 198.732 112.077C199.591 112.761 200.217 113.671 200.609 114.808C201.001 115.944 201.108 117.272 200.928 118.793C200.751 120.294 200.339 121.552 199.693 122.566C199.065 123.582 198.253 124.332 197.256 124.816C196.262 125.281 195.134 125.439 193.873 125.29C192.631 125.143 191.593 124.701 190.759 123.964C189.925 123.226 189.425 122.293 189.257 121.164L189.563 121.2L188.466 130.488L186.214 130.222ZM193.645 123.402C194.98 123.56 196.09 123.23 196.976 122.414C197.883 121.581 198.44 120.284 198.648 118.523C198.858 116.744 198.618 115.353 197.928 114.35C197.259 113.331 196.257 112.743 194.923 112.585C193.606 112.43 192.495 112.769 191.588 113.601C190.702 114.418 190.154 115.716 189.944 117.495C189.736 119.257 189.967 120.647 190.636 121.665C191.326 122.668 192.329 123.247 193.645 123.402ZM203.784 126.207L205.432 112.248L207.323 112.471L211.444 122.459L217.807 113.709L219.697 113.932L218.049 127.891L216.047 127.655L217.4 116.198L217.984 116.267L211.753 124.864L210.612 124.729L206.531 114.887L207.142 114.959L205.786 126.443L203.784 126.207ZM227.887 129.307C226.645 129.16 225.594 128.745 224.735 128.061C223.878 127.358 223.254 126.438 222.862 125.302C222.488 124.167 222.39 122.85 222.567 121.348C222.747 119.828 223.15 118.56 223.778 117.544C224.424 116.53 225.244 115.79 226.239 115.325C227.234 114.86 228.352 114.701 229.594 114.847C230.855 114.996 231.901 115.449 232.733 116.205C233.585 116.944 234.095 117.879 234.263 119.007L233.929 118.968L234.625 115.695L236.794 115.951C236.675 116.482 236.555 117.023 236.434 117.572C236.333 118.105 236.252 118.631 236.191 119.151L234.924 129.884L232.671 129.618L233.059 126.337L233.365 126.373C232.939 127.432 232.225 128.221 231.224 128.742C230.223 129.263 229.11 129.451 227.887 129.307ZM228.548 127.524C229.883 127.682 230.993 127.352 231.879 126.536C232.767 125.701 233.315 124.403 233.523 122.642C233.733 120.862 233.503 119.472 232.831 118.472C232.162 117.453 231.16 116.865 229.826 116.707C228.509 116.552 227.398 116.89 226.492 117.723C225.606 118.54 225.058 119.838 224.847 121.617C224.64 123.378 224.87 124.768 225.539 125.787C226.229 126.79 227.232 127.369 228.548 127.524ZM242.441 130.772L243.876 118.62L238.815 118.023L239.029 116.215L251.431 117.68L251.217 119.487L246.128 118.886L244.693 131.038L242.441 130.772ZM252.12 131.915L253.768 117.956L255.826 118.199L254.424 130.072L253.673 129.984L263.974 119.161L265.864 119.384L264.216 133.343L262.186 133.103L263.592 121.202L264.342 121.291L254.039 132.141L252.12 131.915ZM268.657 133.868L270.306 119.909L272.558 120.175L271.865 126.042L274.507 126.354L279.816 121.032L282.291 121.324L276.209 127.457L275.68 126.69C276.211 126.809 276.659 126.993 277.024 127.243C277.389 127.493 277.724 127.843 278.028 128.292C278.351 128.744 278.682 129.356 279.023 130.129L281.337 135.365L278.918 135.079L276.872 130.439C276.621 129.865 276.363 129.421 276.099 129.107C275.854 128.797 275.552 128.564 275.195 128.409C274.856 128.256 274.417 128.148 273.88 128.084L271.655 127.821L270.91 134.134L268.657 133.868ZM289.013 136.525C287.771 136.378 286.72 135.963 285.861 135.279C285.004 134.576 284.38 133.657 283.988 132.52C283.614 131.386 283.516 130.068 283.693 128.566C283.873 127.046 284.276 125.778 284.904 124.762C285.55 123.748 286.37 123.009 287.365 122.543C288.36 122.078 289.478 121.919 290.72 122.066C291.981 122.214 293.027 122.667 293.859 123.423C294.711 124.163 295.221 125.097 295.389 126.226L295.055 126.186L295.752 122.913L297.92 123.17C297.801 123.701 297.681 124.241 297.56 124.791C297.459 125.324 297.378 125.85 297.317 126.369L296.05 137.102L293.797 136.836L294.185 133.555L294.491 133.591C294.065 134.65 293.351 135.44 292.35 135.961C291.349 136.481 290.236 136.67 289.013 136.525ZM289.674 134.742C291.009 134.9 292.119 134.571 293.005 133.754C293.893 132.919 294.441 131.621 294.649 129.86C294.859 128.081 294.629 126.691 293.957 125.69C293.288 124.671 292.286 124.083 290.952 123.926C289.636 123.77 288.524 124.109 287.618 124.942C286.732 125.758 286.184 127.056 285.974 128.836C285.766 130.597 285.996 131.987 286.665 133.006C287.355 134.008 288.358 134.587 289.674 134.742Z" fill="white"/>
</svg>
