<svg width="123" height="119" viewBox="0 0 123 119" fill="none" xmlns="http://www.w3.org/2000/svg">
<g clip-path="url(#clip0_455_524)">
<path d="M31.0694 17.5253C25.2253 50.8087 19.375 84.1001 13.5238 117.384C13.4414 117.843 13.8764 118.227 14.3124 118.184C49.5009 114.197 84.5332 108.907 119.715 104.921C120.382 104.848 120.464 104.062 120.055 103.66C110.175 93.9217 100.296 84.1905 90.4233 74.4514C74.662 58.911 58.8946 43.3786 43.1332 27.8383C39.4861 24.2474 35.8459 20.6555 32.1988 17.0645C31.553 16.4307 30.6955 17.5529 31.3403 18.1798C41.2203 27.918 51.0994 37.6492 60.9724 47.3884L108.262 94.0014C111.91 97.5924 115.55 101.184 119.197 104.775C119.313 104.355 119.422 103.935 119.538 103.514C84.3492 107.502 49.3169 112.792 14.1355 116.778C14.398 117.042 14.6606 117.307 14.924 117.578C20.7752 84.2937 26.6194 51.0103 32.4696 17.719C32.6302 16.8231 31.23 16.6295 31.0694 17.5253Z" fill="#1B0B37" fill-opacity="0.8"/>
<path d="M15.4692 117.009C46.3752 86.6185 78.8886 57.8955 112.862 30.9657C113.572 30.4033 112.713 29.2853 111.996 29.8486C78.0299 56.7774 45.5174 85.5074 14.6035 115.892C13.9666 116.523 14.8183 117.642 15.4692 117.009Z" fill="#1B0B37" fill-opacity="0.8"/>
<path d="M101.671 39.8916C114.702 52.5887 119.612 75.1327 103.83 87.9457C103.128 88.5141 103.986 89.6322 104.695 89.0628C111.695 83.3812 115.438 74.6478 115.291 65.684C115.123 55.3146 109.82 45.8734 102.536 38.7685C101.883 38.1356 101.032 39.2569 101.677 39.8837L101.671 39.8916Z" fill="#1B0B37" fill-opacity="0.8"/>
<path d="M27.8849 40.3253C35.0194 41.4967 41.923 38.0752 45.3919 31.7604C45.829 30.9635 44.5258 30.4228 44.0878 31.2127C40.9111 36.9843 34.5588 39.9922 28.0794 38.9271C27.1841 38.7811 26.9896 40.1793 27.8849 40.3253Z" fill="#1B0B37" fill-opacity="0.8"/>
<path d="M21.6597 109.989C23.2121 112.162 24.8552 114.265 26.589 116.3C27.1781 116.991 28.2973 116.126 27.7082 115.435C25.9743 113.4 24.3322 111.304 22.7789 109.124C22.2473 108.383 21.1352 109.247 21.6597 109.989Z" fill="#1B0B37" fill-opacity="0.8"/>
<path d="M25.3855 106.834C27.4509 109.878 29.811 112.671 32.4493 115.248C33.0951 115.882 33.9526 114.76 33.3078 114.133C30.7593 111.643 28.5003 108.916 26.5056 105.976C25.9941 105.226 24.8819 106.089 25.3864 106.841L25.3855 106.834Z" fill="#1B0B37" fill-opacity="0.8"/>
<path d="M30.4512 102.323C33.8009 106.145 37.1506 109.967 40.4933 113.79C41.0885 114.473 42.2086 113.615 41.6125 112.925C38.2627 109.103 34.913 105.281 31.5703 101.459C30.9751 100.775 29.855 101.633 30.4512 102.323Z" fill="#1B0B37" fill-opacity="0.8"/>
<path d="M35.9982 96.8106C40.5772 102.513 45.361 108.039 50.3496 113.389C50.9631 114.048 52.0902 113.19 51.4688 112.524C46.4801 107.174 41.6963 101.648 37.1174 95.9457C36.5475 95.2379 35.4283 96.1028 35.9982 96.8106Z" fill="#1B0B37" fill-opacity="0.8"/>
<path d="M41.287 91.7725C47.3497 98.3617 53.4194 104.95 59.4831 111.546C60.0895 112.206 61.2175 111.355 60.6022 110.681C54.5395 104.092 48.4698 97.5039 42.4061 90.9077C41.7997 90.2474 40.6717 91.0992 41.287 91.7725Z" fill="#1B0B37" fill-opacity="0.8"/>
<path d="M47.3222 86.2883C54.6158 94.2811 61.9164 102.273 69.21 110.266C69.8174 110.933 70.9445 110.074 70.3292 109.401C63.0356 101.408 55.735 93.4162 48.4413 85.4234C47.834 84.7561 46.7069 85.6149 47.3222 86.2883Z" fill="#1B0B37" fill-opacity="0.8"/>
<path d="M53.069 80.6141C61.7358 90.2267 70.4016 99.8322 79.0614 109.446C79.6688 110.113 80.7889 109.255 80.1806 108.581C71.5138 98.9683 62.8479 89.3627 54.1882 79.7493C53.5808 79.082 52.4607 79.9398 53.069 80.6141Z" fill="#1B0B37" fill-opacity="0.8"/>
<path d="M58.7464 75.9875C68.2771 86.7032 78.0258 97.2339 87.9827 107.56C88.6083 108.203 89.7293 107.352 89.1018 106.695C79.1449 96.369 69.3963 85.8384 59.8656 75.1227C59.2643 74.4475 58.1442 75.3053 58.7464 75.9875Z" fill="#1B0B37" fill-opacity="0.8"/>
<path d="M64.0528 71.1392C75.2963 82.8043 86.5459 94.4614 97.7894 106.126C98.415 106.77 99.536 105.919 98.9085 105.262C87.665 93.5966 76.4155 81.9394 65.172 70.2744C64.5463 69.6308 63.4253 70.4817 64.0528 71.1392Z" fill="#1B0B37" fill-opacity="0.8"/>
<path d="M70.1669 66.5835C83.4469 79.2765 96.4621 92.2317 109.212 105.442C109.837 106.086 110.958 105.235 110.331 104.577C97.4984 91.2781 84.3934 78.235 71.0314 65.4604C70.3726 64.8354 69.5221 65.9567 70.173 66.5756L70.1669 66.5835Z" fill="#1B0B37" fill-opacity="0.8"/>
<path d="M63.3068 50.1483C57.4103 56.1478 57.3359 65.2118 63.044 71.378C63.6575 72.0374 64.7776 71.1795 64.1632 70.5131C58.8385 64.7733 58.9494 56.5865 64.4243 51.012C65.0594 50.367 63.9358 49.5112 63.3078 50.1553L63.3068 50.1483Z" fill="#1B0B37" fill-opacity="0.8"/>
<path d="M72.4416 40.7518C71.8706 43.8992 71.3942 47.0626 71.0116 50.2351C70.9019 51.1385 72.3021 51.3322 72.4118 50.4287C72.7944 47.2563 73.2708 44.0929 73.8418 40.9455C74.0024 40.0496 72.6022 39.856 72.4416 40.7518Z" fill="#1B0B37" fill-opacity="0.8"/>
<path d="M72.9324 41.3988C74.3856 44.1745 75.7104 47.0026 76.9155 49.8961C77.2601 50.733 78.5633 50.1854 78.2187 49.3486C77.0136 46.455 75.6888 43.627 74.2356 40.8513C73.8176 40.0525 72.5135 40.5931 72.9324 41.3988Z" fill="#1B0B37" fill-opacity="0.8"/>
<path d="M72.9636 47.8956C74.1429 47.7625 75.3302 47.6356 76.5096 47.5025C77.4158 47.4052 77.2327 46.0067 76.3265 46.104C75.1471 46.237 73.9599 46.364 72.7805 46.497C71.8743 46.5943 72.0574 47.9929 72.9636 47.8956Z" fill="#1B0B37" fill-opacity="0.8"/>
<path d="M34.7396 11.17C35.1485 13.3142 35.5495 15.4524 35.9584 17.5966C36.1246 18.4853 37.5262 18.3089 37.3591 17.4133C36.9502 15.269 36.5492 13.1309 36.1403 10.9866C35.9741 10.098 34.5725 10.2743 34.7396 11.17Z" fill="#1B0B37" fill-opacity="0.8"/>
<path d="M36.4098 11.2501C36.9275 11.3957 37.4513 11.5334 37.969 11.679C38.0517 12.2016 37.9147 12.6249 37.5442 12.9508C37.1972 13.4017 36.7938 13.6394 36.2816 13.8629C35.5816 14.175 35.839 15.3789 36.6501 15.2087C37.1148 15.1123 37.5776 15.002 38.0472 14.9974C38.6517 14.9894 40.578 15.1213 39.7276 16.5698C39.3605 17.194 38.1227 17.3702 37.5012 17.4658C36.6084 17.6111 36.7845 19.0106 37.6843 18.8643C39.2187 18.6137 41.4189 17.8989 41.3231 15.9697C41.1979 13.4896 38.2487 13.4347 36.4662 13.8032C36.5887 14.2495 36.7121 14.7027 36.8347 15.149C38.5388 14.3996 40.0823 12.6399 39.1216 10.6888C38.3648 9.15201 36.285 8.9904 35.2905 10.3724C34.7602 11.1104 35.8777 11.9741 36.407 11.2291L36.4098 11.2501Z" fill="#1B0B37" fill-opacity="0.8"/>
<path d="M100.509 59.2048C97.5739 58.9845 94.8409 61.2342 95.3252 64.3358C95.7959 67.3326 99.1535 68.657 101.625 67.0247C102.386 66.5198 101.514 65.4106 100.76 65.9076C98.9573 67.1037 96.7157 65.7612 96.6908 63.6663C96.6623 61.707 98.4653 60.461 100.307 60.5969C101.213 60.6632 101.407 59.265 100.501 59.1987L100.509 59.2048Z" fill="#1B0B37" fill-opacity="0.8"/>
</g>
<defs>
<clipPath id="clip0_455_524">
<rect width="110.082" height="105.397" fill="white" transform="translate(0 14.2878) rotate(-7.45759)"/>
</clipPath>
</defs>
</svg>
